<?xml version="1.0" encoding="utf-8"?>
<!DOCTYPE svg PUBLIC "-//W3C//DTD SVG 1.0//EN" "http://www.w3.org/TR/2001/REC-SVG-20010904/DTD/svg10.dtd">
<svg version="1.0" xmlns="http://www.w3.org/2000/svg" width="1160px" height="1160px" viewBox="0 0 1160 1160" preserveAspectRatio="xMidYMid meet">
 <g fill="#000000">
  <path d="M560.5 1102.9 c-93.4 -10.9 -163 -43.1 -258 -119.5 -7.7 -6.2 -18.3 -14.7 -23.5 -18.9 -5.2 -4.2 -10.3 -8.3 -11.3 -9.1 -2.8 -2.3 -3.1 -1 -0.9 3.3 1.1 2.1 3.3 6.3 4.8 9.4 3.9 7.6 7.6 13.9 15.7 26.7 10.5 16.6 8.7 19.1 -8.9 12.7 -5.4 -2 -16.6 -7 -24.9 -11 -39.1 -19.1 -69.3 -45.2 -95.9 -83 -45.9 -65 -71.7 -151.3 -76.5 -256 -3.4 -71.4 -3.5 -84.9 -1 -86.6 0.5 -0.3 1.2 -5.4 1.5 -11.5 0.3 -6 1.6 -16.5 2.9 -23.4 1.3 -6.9 2.7 -14.5 3.1 -17 0.3 -2.4 1 -5.1 1.5 -6 0.5 -0.8 2.6 -8.5 4.8 -17 14.9 -58.3 39.2 -112.9 68.4 -153.5 15.4 -21.2 43.4 -51.3 64.2 -68.7 52.8 -44.2 120.7 -78.8 211 -107.6 49.3 -15.8 123.7 -38.2 126.7 -38.2 1.8 0 12.7 -24 15.3 -33.5 0.9 -3.3 1.9 -10.9 2.2 -17 0.4 -7 1.1 -11.4 1.9 -12 0.7 -0.5 1.4 -1.9 1.6 -3 0.2 -1.1 1.3 -2.4 2.6 -3 1.2 -0.5 2.2 -1.5 2.2 -2.2 0 -2.3 16.1 -9.3 26.5 -11.4 15.6 -3.3 33.7 -1.2 51 5.7 5.9 2.4 7.6 3.7 15.1 12.2 19.1 21.4 36.4 46 45.5 64.7 3.3 6.6 5.9 11 5.9 9.8 0 -5.8 3.8 -7 8.8 -2.8 1.7 1.4 3.6 2.5 4.4 2.5 0.8 0 1.8 0.4 2.3 0.9 0.6 0.5 5.5 2.1 11 3.6 10.8 2.9 17.5 5.9 24.5 11 l4.5 3.3 4.5 -5.6 c12.8 -16 42.3 -32.5 62.6 -34.8 3 -0.4 5.7 -1.1 6 -1.5 1.3 -2.1 12.4 -0.5 26.4 3.9 10.5 3.3 31 13.5 37.7 18.8 9.4 7.3 15.1 16.8 15.4 25.4 0.6 13.9 -14.3 35.4 -38.8 56.2 l-8.3 7 7 7.5 c17 18.2 46.5 55 68.1 84.9 55.6 76.9 90.7 141.3 95.9 176.4 0.7 4.1 1.5 8.4 2 9.5 0.4 1.1 1.3 5.4 2 9.5 0.6 4.1 2.1 12.5 3.1 18.5 11.4 64.8 10.3 136.8 -3.1 195.4 -12.2 53.5 -33 94.8 -72.2 143.7 -22.8 28.5 -71 81.7 -74.5 82.2 -3.3 0.5 -6.3 -4.2 -6.3 -9.8 l0 -4.7 -8.2 8.2 c-9.6 9.4 -18.4 16.2 -38.6 29.2 -21.6 14 -22.2 13.6 -16.4 -11.5 5.1 -22 6.2 -28.1 6.2 -34.8 0 -7.1 -1.9 -15.4 -3.4 -15.4 -0.7 0 -5.3 5.7 -10.2 12.8 -38.8 56 -67.5 84 -111.9 109.4 -20.2 11.5 -55.8 27.9 -103 47.3 -41.1 16.9 -50.4 20.5 -52.8 20.4 -1.2 -0.1 -9.4 -1 -18.2 -2z m37.3 -17.5 c56.2 -22.9 86.4 -36 109.3 -47.4 51.4 -25.8 78.6 -48.7 114.4 -96.5 13.9 -18.6 29.5 -41.4 29.5 -43.2 0 -0.7 0.7 -1.3 1.5 -1.3 0.8 0 1.5 -0.4 1.5 -0.9 0 -0.5 9 -14.6 19.9 -31.4 16.2 -24.8 20.5 -32.1 23 -39.2 1.7 -4.8 3.1 -9.7 3.1 -11 0 -1.3 0.6 -2.8 1.4 -3.2 0.7 -0.4 1.6 -2.6 1.8 -4.8 0.3 -2.2 1.3 -8.2 2.4 -13.2 l1.8 -9.3 3.8 0 c3.7 0 3.8 0.1 3.8 3.8 0 3.6 3.2 9.2 5.2 9.2 0.4 0 3.2 -4 6.2 -8.9 19.2 -31 28.9 -54.6 34.1 -82.4 4.3 -23.8 6 -51.2 3.1 -53.6 -0.9 -0.8 -1.5 -4.7 -1.9 -12.4 -0.7 -15.8 -4.7 -25.5 -11.8 -29 -2.9 -1.4 -3.7 -1.4 -6.7 -0.1 -1.9 0.8 -4.7 1.4 -6.3 1.4 l-2.9 0 0 -7.5 0 -7.4 3.8 -1 c4.9 -1.4 13.5 -1.4 18.3 0.1 11.9 3.5 19.8 19.4 19.9 39.6 0 5.2 0.4 7.4 1.4 7.8 0.9 0.4 1.5 3.5 2 10.4 0.6 9.1 0.3 12.1 -4.4 38.7 -10.4 58.8 -15.8 74.6 -34.9 101.2 -3.9 5.4 -7.1 10.8 -7.1 11.9 0 1.3 -1.4 2.9 -3.6 4.2 -2.8 1.8 -4.6 2.2 -9.3 1.8 l-5.7 -0.4 -1.3 4.5 c-0.6 2.6 -1.9 8 -2.7 12.1 -2.3 11.1 -8 21.7 -27.1 50.3 l-17.3 25.8 3 5.7 c6 11.6 6.3 22 1.1 42.5 -1.6 6.2 -2.8 11.3 -2.7 11.4 0.2 0.2 4.3 -2.5 9.2 -5.8 27.2 -18.6 35.5 -29 62.4 -78.9 4 -7.4 7.8 -13.8 8.4 -14.2 1.3 -0.9 7.8 -1 10 -0.2 1.2 0.5 1.6 2 1.6 6.1 0 5.2 -0.7 6.9 -9.7 23.2 -5.3 9.7 -12 21.6 -15 26.4 -5 8.3 -6.3 11.7 -4.5 11.7 0.4 0 4.8 -4.8 9.7 -10.7 5 -5.9 14 -16.3 20 -23.2 47.9 -54.6 70 -87.8 83.9 -125.6 2 -5.5 4.3 -11.1 5 -12.5 3.6 -6.6 11.8 -38.8 15.6 -60.9 10.1 -60.1 7 -131.7 -8.6 -195.2 -3.6 -15 -12.7 -43.1 -16.8 -52.1 -4 -9 -16 -30.9 -25.9 -47.3 -12.9 -21.6 -52.4 -81.6 -55.6 -84.5 -1.5 -1.4 -7.2 -8.3 -12.6 -15.5 -18.4 -24.2 -35 -44.4 -49.8 -60.6 -5.8 -6.3 -6.7 -6.9 -8.4 -5.8 -1.7 1 -2.2 3.1 -3.2 15.3 -2 23.3 -4.6 31.5 -12.1 37.8 -4.8 4.2 -12 6.7 -21.6 7.5 l-7.3 0.6 5 6.1 c4.8 5.8 5 6.3 4.7 11.6 l-0.3 5.5 -7.7 0.3 -7.6 0.3 -7.6 -11.4 c-4.4 -6.8 -8.3 -11.7 -9.6 -12 -1.3 -0.3 -2 -1.3 -2 -3 0 -4.8 -31 -38.9 -44.7 -49 -38 -28.4 -60.9 -33.8 -180.7 -43.2 -23.2 -1.9 -33.2 -2.3 -33.9 -1.6 -0.6 0.6 -2.8 1.1 -4.9 1.1 l-3.9 0 0.3 -7.8 0.3 -7.7 6.3 -0.3 c3.4 -0.2 6.2 -0.4 6.2 -0.5 0 -0.1 -0.9 -4.8 -2 -10.5 -1.3 -6.9 -2 -14.4 -2 -22.7 0 -6.9 -0.4 -12.5 -0.8 -12.5 -0.5 0 -15.9 4.5 -34.3 10.1 -147.5 44.3 -229.1 81.8 -291.4 133.8 -11.5 9.6 -34.1 32.2 -43.2 43.1 -17.6 21.3 -42.1 60.9 -54.8 88.5 -16.6 36.1 -34.6 96.9 -38 128.5 -4 37.1 -5.2 67.5 -3.6 89.5 7.3 100.1 24.7 175.8 53.6 233.5 14.3 28.6 27.1 46.3 50.5 70.4 16.2 16.5 25.5 24.4 40.4 33.9 9.7 6.2 32.5 18.1 33.2 17.4 0.3 -0.3 -0.9 -2.9 -2.7 -5.8 -6.1 -10.4 -15.2 -29.6 -20.5 -43 -7.3 -18.9 -13.5 -39 -33.8 -109.9 -9.7 -33.8 -19.1 -64.9 -20.8 -69 -2.6 -6.2 -4.8 -9.2 -12.8 -17.6 -29.5 -30.9 -41.5 -65 -45 -128.9 -1.3 -24.2 -1.3 -71.1 0 -73.6 0.9 -1.5 2.2 -1.9 6.3 -1.9 l5.3 0 1.2 37.6 c1.4 41.1 2.3 53.6 5.3 72.4 3.7 23.7 8.5 37.4 19.3 54.7 16.8 27.1 40.6 53.3 65.2 71.6 9.4 6.9 24.2 16.2 24.9 15.5 0.2 -0.2 -0.6 -2.4 -1.9 -4.9 -7.6 -14.2 -12.3 -43.5 -16.6 -102.4 -1.1 -15.4 -2.2 -29.1 -2.4 -30.5 -0.2 -1.4 -3.5 -14.4 -7.5 -29 -7.1 -26.3 -8.5 -35.2 -5.9 -37.8 1.3 -1.3 7.7 -1.6 9.4 -0.4 0.6 0.4 5.5 15.8 10.9 34.2 5.5 18.4 10.5 34.6 11.2 36 0.7 1.4 1.3 3 1.3 3.6 0 3.4 13 27.4 20 36.9 6 8.2 17.3 19.3 24.5 24.2 19.6 13.2 43.8 20.7 81.5 25.4 10.6 1.4 16.9 2.6 17.6 3.5 0.6 0.7 3 1.6 5.5 2 l4.3 0.7 -1.9 -2.9 c-11.2 -17 -28.4 -50 -36.8 -70.9 -16.9 -41.8 -27.3 -89.4 -30.7 -140.3 -1.1 -17.1 -1.4 -64.5 -0.4 -74.1 l0.7 -6.1 3.3 0 3.4 0 0 7.8 c0 4.2 0.5 13.6 1 20.7 0.6 7.2 1.5 23.4 2 36 3.7 85.4 20.9 147.5 54.2 195.5 5.2 7.5 19.7 24 28.2 32.3 11.6 11.2 37.5 30 54.1 39.2 6.4 3.6 29.5 11.9 29.5 10.7 0 -0.4 -1.5 -4.3 -3.4 -8.7 -4.4 -10.6 -9.1 -26.8 -11.1 -38.5 -0.9 -5.2 -2.3 -10.8 -3.1 -12.3 -1.7 -3.5 -1.9 -36.6 -0.4 -55.2 2.9 -33.3 13.6 -76.6 31.4 -126.1 10.7 -30 20.7 -52.7 40.8 -92.6 9.4 -18.9 12.3 -23.8 13.8 -23.8 1.1 0 2 -0.2 2 -0.5 0 -0.3 -2.2 -5 -5 -10.5 -2.7 -5.5 -5 -10.8 -5 -11.7 0 -1 -1.6 -6.5 -3.6 -12.3 -4.6 -13.4 -12.4 -44 -12.4 -48.5 0 -3.3 0.2 -3.5 3.3 -3.5 3.1 0 3.3 0.3 5.6 6.8 4.4 12.2 21.8 55.4 28.1 69.7 14.4 32.6 37.1 68.2 65.8 103.2 26.7 32.7 63.7 61.5 105.9 82.7 23 11.4 32.6 15 48.5 17.9 7.8 1.5 7.8 1.4 7.3 -0.7 -2.1 -9.3 -6.9 -37.3 -9 -52.1 -6.1 -43.2 -15.4 -82.4 -28.5 -120.8 -6.6 -19.3 -6.7 -24.7 -0.5 -24.7 2.3 0 3.4 0.5 3.8 1.8 0.3 0.9 3 10.3 6.2 20.7 17.2 57.7 28.6 112 34 161.9 0.9 8.2 2 15.7 2.6 16.7 1.2 2.2 1.1 30.6 -0.1 60.4 -1.3 32.6 -4.9 57.3 -11.9 81.5 -7.6 26.7 -11.3 38.3 -14.6 46 -1.9 4.6 -3.3 8.5 -3.1 8.7 0.6 0.6 13.6 -8.5 20.1 -14.1 35.7 -30.5 62.7 -85.3 82.5 -167 8.4 -34.5 12.9 -83.8 11.3 -122.8 l-0.6 -15.8 3.5 0 3.5 0 0.7 7.7 c0.8 10.3 0.6 56.9 -0.3 66.8 -0.6 6.5 -0.5 8.3 0.7 9.8 3.1 3.6 2.7 12.3 -1.8 33.8 -18.9 91.8 -45.7 153.4 -82.7 190.4 -14.2 14.2 -34 26.6 -44.5 28 -2.9 0.4 -5.8 1.2 -6.5 1.7 -0.6 0.5 -2.7 0.8 -4.5 0.6 -3 -0.3 -3.3 -0.6 -3.6 -3.9 -0.2 -2.3 0.2 -4 1.2 -4.9 0.9 -0.7 1.6 -1.9 1.6 -2.7 0 -0.8 0.9 -2.8 2.1 -4.4 3.8 -5.4 11.7 -23.3 15.3 -34.9 12.4 -39.9 20.1 -91.5 20.9 -139.8 0.2 -14.6 0.1 -15.2 -1.8 -15.2 -4.8 0 -26.6 -5.3 -38.8 -9.3 -58.8 -19.7 -114.5 -67.7 -161.6 -139.2 -5.1 -7.7 -9.8 -14.5 -10.5 -15 -0.8 -0.6 -3.4 -5.1 -5.9 -10 -2.5 -5 -6.8 -13 -9.6 -18 l-5 -8.9 -1.6 3.7 c-0.8 2 -4.2 9.7 -7.4 17 -9.2 20.7 -25.2 59.6 -31.4 76.2 -6.9 18.4 -23.6 71.7 -27.7 88.2 -15.4 62.1 -12.3 114.9 9.2 160.3 4.2 8.7 5.1 11.5 5.2 16.5 l0.1 6 -3.6 0.3 c-8.1 0.7 -36.4 -8.3 -56.4 -17.7 -20 -9.6 -46.5 -27.2 -46.5 -31 0 -1 -0.9 -2.6 -2.1 -3.7 -1.8 -1.7 -4.4 -2 -21.3 -2.6 -30.9 -1 -47.5 -4 -75.4 -13.3 -27.4 -9.1 -38.7 -15.8 -55.8 -32.9 -12 -12 -20.9 -24.3 -23 -31.5 l-1.3 -4.6 0.5 7 c1.2 16 4.5 46.6 5.9 55 2.8 16.5 13.2 48 17.1 52.3 2.4 2.5 8.6 9.7 12.4 14.3 1.9 2.3 3 4.8 3 6.8 0 3 -0.1 3.1 -4.7 3.1 -3.5 0 -6 -0.8 -10 -3.2 -2.9 -1.8 -5.3 -3.8 -5.3 -4.5 0 -0.7 -0.7 -1.3 -1.5 -1.3 -0.8 0 -1.5 -0.4 -1.5 -0.8 0 -0.4 -1.2 -1.3 -2.7 -1.9 -1.6 -0.6 -5.5 -2.3 -8.8 -3.7 -3.3 -1.4 -6.7 -2.6 -7.6 -2.6 -1.7 0 -21.6 -13 -28.7 -18.8 -2.6 -2 -5.5 -4.3 -6.4 -5.1 -1.3 -0.9 -0.6 2.1 2.8 12.1 2.5 7.3 9.9 32 16.5 54.8 14.9 51.6 21.5 71.7 27.9 84.5 4.3 8.6 5.9 10.7 11.2 15 3.4 2.8 14.3 11.7 24.2 19.8 75.7 62 130.6 94.4 191.4 112.7 16.9 5.1 41.2 10.4 59.2 12.9 29.6 4.2 26.8 4.4 48.8 -4.5z m250.1 -801.5 c13.8 -2.3 17.8 -7.6 20.1 -26.9 2 -16.8 2 -16.2 -0.2 -16.8 -4.2 -1.1 -1 -13 6.5 -23.9 1.7 -2.5 2.9 -3.2 5.4 -3.3 1.7 0 3.3 0.5 3.5 1.1 0.7 2.2 9.9 -5.4 25.1 -20.5 20.5 -20.3 24.7 -28.1 19.6 -36.5 -7.2 -11.9 -22.8 -20.3 -53.1 -28.6 -12.6 -3.5 -13.4 -3.6 -20.9 -2.6 -9.5 1.3 -18.4 4.2 -24.7 8 -2.6 1.6 -9.9 7.8 -16.3 13.8 -12.8 12 -12 10.1 -9 21.8 1.5 5.9 1.3 20 -0.5 27.5 -3 12.9 -11.7 27.2 -19.6 32.2 -2.1 1.2 -3.7 2.5 -3.7 2.8 0 0.3 2.1 2.1 4.6 4 9.3 7 25 23 35.8 36.4 l11 13.7 5.5 -0.6 c3 -0.4 7.9 -1.1 10.9 -1.6z m-66.3 -70.2 c5.4 -6.1 9.6 -13.3 12.4 -21.6 2.4 -7.2 2.2 -9.3 -1.5 -13.6 -1.4 -1.6 -4.3 -5.1 -6.5 -7.6 -7.6 -9 -19.5 -15.3 -34.7 -18.5 -10 -2 -11.4 -1.6 -13.5 4.3 -1 2.6 -4.3 9.1 -7.4 14.3 -11.1 18.8 -15.2 29.3 -12.7 32.5 0.4 0.6 5.3 2.3 10.7 3.8 12.7 3.6 23.3 7.7 32.1 12.6 l7 3.9 4.8 -2.6 c2.7 -1.5 6.9 -4.8 9.3 -7.5z m131.4 -14.4 c0 -0.8 -0.9 0 -5 4.5 l-4.5 4.7 4.8 -4.5 c2.6 -2.4 4.7 -4.5 4.7 -4.7z m-206.8 -3.8 c0.6 -7.3 5 -17.5 13.8 -31.9 4.6 -7.8 4.8 -8.3 4 -12.8 -2.7 -14.3 -19.3 -41.6 -41.5 -68.2 -13.6 -16.2 -15.7 -18.4 -20.6 -20.4 -5.6 -2.4 -19.5 -5.9 -26.9 -6.7 -7 -0.8 -19.1 1.6 -27.8 5.6 -3.6 1.6 -7 2.9 -7.5 2.9 -0.6 0 -2.8 1.7 -4.9 3.7 -3 2.9 -3.8 4.5 -3.8 7.3 0 5.1 -2.2 13.7 -8.4 32.7 -9.6 29.7 -12.2 43 -11.3 57.6 0.5 7.7 3.5 21.8 4.8 23.1 0.2 0.2 12.6 1.4 27.4 2.5 46.2 3.7 71.2 6.2 85.8 8.5 7.8 1.3 14.7 2.4 15.3 2.5 0.7 0 1.3 -2.5 1.6 -6.4z"/>
  <path d="M382.3 983.5 c-14.3 -2.6 -28.7 -8.4 -44.3 -18 -12.5 -7.7 -13 -8.1 -13 -12.4 0 -3.5 0.5 -4 9.3 -10.3 18.7 -13.3 30.9 -19.7 44.8 -23.3 3.5 -0.9 8 -2 10 -2.6 4.8 -1.2 17.8 -1.2 27.6 0.1 16.5 2.2 33.8 9.8 49.9 21.9 l8.9 6.7 0.3 6.7 0.3 6.6 -4.8 3.1 c-7.5 4.8 -28.1 14.7 -36.3 17.5 -15.7 5.3 -36.7 6.9 -52.7 4z m26.2 -15.4 c7.9 -3.6 14.3 -13 13.2 -19.5 -0.9 -5.3 -5.5 -14.4 -8.1 -16.2 -3.3 -2.1 -16.2 -2.2 -20.3 -0.1 -6.2 3.3 -12.3 12.2 -12.3 17.9 0.1 3.4 3.3 9.9 6.6 13.2 3.6 3.6 9.9 6.6 13.9 6.6 1.7 0 4.8 -0.9 7 -1.9z m-41.5 -16.3 l-0.5 -10.7 -9.3 5.7 -9.2 5.6 3.7 2.4 c3.8 2.4 15.6 8.3 15.8 7.9 0 -0.1 -0.2 -5 -0.5 -10.9z m88.5 0.2 c0.6 -0.9 -9.1 -7.8 -16.2 -11.4 l-3.3 -1.7 0 10.5 c0 5.7 -0.3 11.2 -0.6 12.1 -0.5 1.2 2.3 0.1 9.4 -3.4 5.5 -2.8 10.3 -5.5 10.7 -6.1z"/>
  <path d="M626.7 943.5 c-9.9 -1.6 -25.7 -5.6 -31.1 -7.9 -3.6 -1.5 -3.6 -1.5 -3.6 -7.8 0 -6.1 0.2 -6.5 6.5 -15.3 18.1 -25.2 31.5 -36.9 50.2 -43.7 7.4 -2.6 33.8 -3.7 46.5 -1.8 10.1 1.4 34.6 7.6 36.5 9.1 0.8 0.7 1.3 3.2 1.3 6.4 0 4.6 -0.6 6.1 -5.6 13.6 -17.2 25.7 -36 40.7 -58.4 46.3 -9.2 2.4 -31.3 2.9 -42.3 1.1z m-1.3 -21.1 c-2 -3.9 -3.4 -8 -3.4 -10.2 l0 -3.6 -5.2 6.8 c-2.9 3.8 -5.3 7.4 -5.3 8 0 0.6 3.8 2.1 8.5 3.3 4.7 1.2 8.6 2.2 8.7 2.2 0.1 0.1 -1.4 -2.9 -3.3 -6.5z m41.5 1 c6.4 -3.2 11.7 -10 12.7 -16.2 1.6 -10.4 -10.5 -23.3 -21.8 -23.2 -10.9 0.1 -23.2 13.5 -21.4 23.4 1.1 5.9 6.5 12.7 12.5 15.8 6.7 3.5 11.2 3.5 18 0.2z m41.8 -29.2 c3.1 -4 5.4 -7.4 5.2 -7.6 -0.6 -0.6 -23.3 -5.6 -25.2 -5.6 -1.2 0 -0.8 1.4 1.9 6.6 3.1 5.9 3.4 7.4 3.4 14.7 l0 8.1 4.6 -4.4 c2.5 -2.5 7 -7.8 10.1 -11.8z"/>
  <path d="M326.5 896.1 c-18.8 -3.2 -34.9 -9.4 -51.2 -19.9 l-7.3 -4.7 0 -4.7 c0 -3.7 0.4 -4.8 1.9 -5.3 1 -0.3 5 -3.3 8.7 -6.6 8.9 -7.9 27.6 -20.4 38.4 -25.6 14 -6.8 23 -8.8 40 -8.8 15.3 0 19.9 0.9 32.2 6.1 7.5 3.1 19.4 10.2 26.9 15.9 5.6 4.4 5.9 4.8 5.9 9 0 6.4 -1.2 8.6 -9.2 17.1 -12.6 13.3 -26.2 21.3 -43 25.5 -9.3 2.3 -34.5 3.4 -43.3 2z m34.4 -17.6 c7.3 -3.7 14 -13.4 14.1 -20.3 0 -7 -5.6 -15.7 -12.9 -20 -6.9 -4.1 -14.9 -3.8 -21.8 0.6 -9.1 5.9 -14.1 16.6 -11.4 24.4 2.6 7.4 9.7 14.6 16.7 16.8 3.8 1.2 11.6 0.5 15.3 -1.5z m-45 -5.5 c-1.4 -3.6 -1.9 -7.6 -1.9 -14 0 -5 -0.4 -9 -0.9 -9 -0.5 0 -5.9 3.7 -12.1 8.2 l-11.3 8.1 4.9 2.5 c8.1 4.2 19.8 9.2 21.6 9.2 1.5 0 1.4 -0.5 -0.3 -5z m84.4 -14.8 l3.9 -4 -3.4 -2.5 c-1.8 -1.4 -5.6 -3.9 -8.5 -5.5 l-5.2 -3.1 0.9 2.5 c0.6 1.4 1 7 1 12.5 l0 10.1 3.8 -3 c2 -1.7 5.4 -4.8 7.5 -7z"/>
  <path d="M616.5 852.9 c-9.8 -1.3 -20.7 -4.2 -29.5 -7.9 -4.1 -1.7 -9 -3.6 -10.7 -4.1 -3.2 -1 -3.3 -1.2 -3.3 -6.4 0 -4.6 0.6 -6.5 4.1 -12.2 6.4 -10.5 16.9 -23.9 26.1 -33.4 12.5 -12.9 19.7 -15.7 42.3 -16.6 11.7 -0.4 16.9 -0.2 23.7 1.1 11 2.1 26.1 7.3 40 13.8 l10.8 5.1 0 5.4 c0 4.9 -0.5 6.2 -5 12.7 -9.6 13.9 -24.2 26.7 -38.5 33.9 -2.7 1.3 -9.1 3.8 -14 5.5 -8.1 2.8 -10.6 3.2 -24 3.6 -8.3 0.3 -18.1 0.1 -22 -0.5z m36 -16.3 c13.8 -4.3 23.6 -19.3 19.3 -29.3 -4.3 -9.8 -13.1 -17.1 -23.4 -19.4 -5 -1.1 -6.2 -1 -12.3 0.9 -7.4 2.4 -17 8.2 -21.3 12.8 -6.2 6.7 -5.9 16 0.8 24.4 9.2 11.6 22 15.2 36.9 10.6z m-54.3 -7.8 c-2.1 -5.7 -2 -5.6 -4.2 -2.8 -2.6 3.4 -2.5 3.9 1.3 5.5 4.6 2 4.7 1.9 2.9 -2.7z m100 -23.1 c1.9 -2.4 2.7 -4.2 2.1 -4.8 -0.5 -0.5 -4.6 -2.5 -9 -4.3 l-8 -3.4 1.8 4.9 c1.2 3.2 1.9 7.5 1.9 12.1 l0 7.2 4.1 -3.9 c2.2 -2.2 5.4 -5.7 7.1 -7.8z"/>
  <path d="M584.5 754.5 c-10.3 -1.6 -31.7 -7.4 -38.7 -10.4 l-4.8 -2 0 -5 c0 -2.7 0.6 -5.6 1.3 -6.3 0.6 -0.7 2.5 -4 4.1 -7.3 12.1 -25.6 31.5 -43.1 54.1 -49.1 11.2 -3 33.9 -2.6 47.1 0.9 14.7 3.8 38.5 13.8 40.6 17.1 1.8 2.7 0.7 8.9 -2.8 15.9 -7.5 15 -15.9 25.3 -26.9 33.2 -7.5 5.4 -11.9 7.6 -22 11 -7.2 2.4 -9.7 2.7 -25.5 3 -12 0.3 -20.3 0 -26.5 -1z m43.2 -15.8 c12.4 -4.3 21.5 -18.6 18.5 -28.9 -0.7 -2.4 -1.7 -5.8 -2.2 -7.7 -1.1 -4.4 -5.3 -8.6 -10.4 -10.4 -2.2 -0.8 -6.1 -2.3 -8.6 -3.2 -12 -4.5 -28.4 3.5 -34.6 16.9 -3.2 6.8 -3 11 0.7 18.4 5.4 10.8 16.3 17.6 26.9 16.8 3 -0.2 7.4 -1.1 9.7 -1.9z m-50.5 -6.4 c-1.8 -4.1 -2.8 -8.1 -3.2 -13.7 l-0.5 -8 -5.1 7.5 c-5.2 7.5 -8.8 13.8 -8.2 14.4 0.6 0.6 16.3 5.3 18 5.4 1.5 0.1 1.3 -0.7 -1 -5.6z m91.3 -26.5 l2.6 -4.8 -6.2 -3 c-3.5 -1.6 -6.4 -2.8 -6.6 -2.6 -0.2 0.1 0.4 2.2 1.2 4.6 0.8 2.3 1.5 7 1.5 10.4 l0.1 6.1 2.4 -3 c1.3 -1.6 3.6 -5.1 5 -7.7z"/>
 </g>
 <g fill="#c7112a">
  <path d="M927 938.1 c0 -1 -0.7 -3.7 -1.5 -6 -1.4 -4 -1.4 -4.1 0.9 -4.1 1.9 0 2.6 0.8 3.6 4.5 1 3.6 1 4.8 0 6 -1.7 2 -3 1.9 -3 -0.4z"/>
  <path d="M908 821.1 c0 -1 0.7 -3.5 1.5 -5.4 0.8 -2 1.5 -5 1.5 -6.7 0 -2.4 0.4 -3 2.1 -3 1.8 0 2 0.4 1.4 4.8 -1 8 -2.6 12.2 -4.7 12.2 -1.1 0 -1.8 -0.7 -1.8 -1.9z"/>
  <path d="M826.2 286.3 l-2.1 -3 10 -1.2 c15.3 -1.9 18.5 -3.3 21.9 -10.2 2.6 -5.1 5.7 -18 6.5 -27.4 0.4 -4.4 1.2 -8.6 1.7 -9.2 1.5 -1.8 5.9 -1.7 5.2 0.1 -0.3 0.8 0.3 1.6 1.7 1.9 2 0.5 2.1 0.9 1.4 8.9 -3 36.6 -6 40.2 -35.3 42.4 l-8.9 0.7 -2.1 -3z"/>
  <path d="M778.9 236.7 c-1.9 -1.8 -3.5 -3.8 -3.3 -4.4 0.1 -0.7 0.2 -1.7 0.3 -2.2 0 -0.4 2 -2 4.4 -3.5 14.5 -9.4 25.1 -37.1 20.6 -54.1 -0.6 -2.2 -1.4 -5.7 -1.8 -7.7 -0.5 -2.1 -1.4 -4.4 -2.1 -5.3 -1 -1.2 -0.7 -2 2.1 -4.6 3.2 -3 3.4 -3.1 3.7 -1 0.3 1.7 1 2.1 3.8 2.1 3.1 0 3.8 0.6 7.4 6.1 5 7.8 7.9 16.5 8.6 26.5 1.8 23.7 -10.2 41.5 -33.2 49.4 -3.1 1.1 -6 2 -6.3 2 -0.3 -0.1 -2.2 -1.5 -4.2 -3.3z"/>
  <path d="M875 219.3 c0 -2.2 2.8 -6.5 11.7 -17.9 13.9 -17.8 20.7 -28.1 22.3 -33.9 1.1 -3.8 1 -4.8 -1 -9.1 -3.4 -7.9 -10.9 -19.2 -14.1 -21.4 -2.1 -1.5 -2.9 -3 -2.9 -5 l0 -2.9 6.7 2.5 c12.1 4.6 21.5 9.7 26.4 14.5 7.1 6.9 8.9 10.4 8.9 17.3 0 9.7 -3.8 15.5 -21.7 33.3 -8.4 8.4 -17.8 16.9 -20.9 18.9 -3.1 2.1 -5.8 4.3 -6.1 5.1 -0.6 1.6 -6.3 1.8 -6.3 0.2 0 -0.8 -0.5 -0.8 -1.5 0.1 -1.3 1.1 -1.5 0.8 -1.5 -1.7z"/>
  <path d="M790 173.3 l0 -3.8 3 3.2 c1.7 1.8 3 3.4 3 3.7 0 0.4 -1.3 0.6 -3 0.6 -2.8 0 -3 -0.2 -3 -3.7z"/>
  <path d="M748.3 152.3 c-1.5 -0.3 -2.3 -1.2 -2.3 -2.4 0 -2.2 0.6 -2.3 6.6 -0.8 8.2 2.1 4.4 4.9 -4.3 3.2z"/>
 </g>
 <g fill="#ed1c24">
  <path d="M390.8 965.7 c-7 -5.4 -8.8 -8.8 -8.8 -17.3 0 -6.8 0.2 -7.4 3.1 -9.8 2.5 -2.1 4.1 -2.6 8.9 -2.6 7.5 0 8.8 0.5 10.5 4.5 1.8 4.5 5.7 7 8.4 5.6 1.1 -0.6 3.3 -1.1 5 -1.1 3.1 0 3.1 0 3.1 5.4 0 6.3 -2.3 10.3 -8.8 15.3 -3.9 2.9 -5.1 3.3 -10.7 3.3 -5.6 0 -6.8 -0.4 -10.7 -3.3z"/>
  <path d="M649 923.9 c-9.2 -5.5 -13 -11.7 -13 -21.3 0 -11.3 3.2 -14.6 13.9 -14.6 7.8 0 9.1 0.6 9.1 4.2 0 3 4.6 8.8 7.1 8.8 0.6 0 2.6 -1.6 4.5 -3.5 2.4 -2.6 4.1 -3.5 6.4 -3.5 l3.2 0 -0.4 8.9 c-0.3 8.2 -0.5 9.2 -3.4 12.8 -1.7 2.1 -5.2 5.3 -7.8 7.1 -4 2.7 -5.7 3.2 -10.5 3.2 -3.9 0 -6.7 -0.6 -9.1 -2.1z"/>
  <path d="M343 877.3 c-9.6 -6.3 -13 -12.4 -13 -22.8 0 -7.1 0.2 -7.9 2.9 -10.6 2.6 -2.6 3.6 -2.9 9 -2.9 8.7 0 14.1 1.8 14.1 4.8 0 1.3 1.3 3.6 2.8 5.1 2.5 2.6 3.3 2.8 8 2.3 l5.2 -0.5 0 4.6 c0 2.5 -0.4 5.7 -1 7.1 -1.2 3.4 -8.6 11.4 -12.1 13.2 -3.8 1.9 -12.8 1.8 -15.9 -0.3z"/>
  <path d="M630.5 833.6 c-10.7 -7.2 -14.5 -13.7 -14.5 -24.4 0 -12.5 3.6 -16.2 15.7 -16.2 8.9 0 11.3 1.6 11.3 7.2 0 5.1 2.9 9.9 7.4 12.3 3 1.7 4 1.8 6.9 0.7 1.8 -0.7 4.5 -1.2 6 -1.2 2.5 0 2.7 0.3 2.7 3.8 0 5.8 -6.4 13.9 -15.1 19 -2.6 1.6 -5.3 2.2 -9.5 2.2 -5.1 0 -6.6 -0.5 -10.9 -3.4z"/>
  <path d="M606.3 736.6 c-6.3 -4.6 -11.6 -11.6 -13.4 -17.7 -0.6 -2 -1 -7.3 -0.8 -11.8 0.4 -8.1 0.5 -8.4 4.1 -11.7 3.6 -3.2 4.1 -3.4 11.2 -3.4 5.8 0 7.9 0.4 9.9 2 1.4 1.1 3.2 2 4.1 2 1.2 0 1.6 1 1.6 4.1 0 3.5 0.6 4.8 3.9 8.1 l3.9 3.9 6.6 -0.7 6.6 -0.7 0 3.7 c0 7.2 -7.1 17.8 -15.7 23.5 -3.8 2.6 -5.7 3.1 -10.4 3.1 -5.1 0 -6.2 -0.4 -11.6 -4.4z"/>
  <path d="M817 274.7 c-9.2 -11.4 -22.3 -24.9 -32.4 -33.4 l-4.9 -4.1 5.4 -1.7 c32.5 -10.5 44.1 -42.3 25.8 -70.5 -3.3 -5.2 -4.2 -6 -5.4 -5 -1.3 1.1 -1.5 0.8 -1.5 -1.8 0 -2.5 1.5 -4.4 8.6 -11.1 17.3 -16.4 23.7 -18.9 53.7 -20.9 20.1 -1.3 29.1 2.8 38.2 17.1 10.9 17.3 11.1 24.2 1.2 39.5 -4.1 6.4 -20.9 28.4 -24.8 32.7 -5.5 6 -10.9 14.8 -10.9 17.8 0 0.8 -0.9 2.5 -1.9 3.8 -1.3 1.7 -2.1 4.9 -2.6 10.4 -0.8 9.4 -3.9 22.3 -6.5 27.4 -3.4 6.8 -6.6 8.2 -23 10.4 l-9.5 1.3 -9.5 -11.9z"/>
  <path d="M757 222.6 c-5.2 -2.8 -14.4 -6.7 -20.5 -8.8 l-11 -3.8 -0.3 -5.3 c-0.4 -6.9 2 -13.2 10 -26.7 8.4 -14.4 11.1 -21.2 10.3 -26.3 l-0.7 -4 3.3 0.7 c1.9 0.4 5.7 1.1 8.4 1.6 11.5 1.9 24.9 9.1 31.6 16.9 12.6 14.5 12.2 13.7 10.5 22.2 -2.9 13.8 -12.5 28.8 -22.1 34.5 -8.1 4.7 -9 4.7 -19.5 -1z"/>
  <path d="M704.9 205.6 c-0.2 -0.2 -7.8 -1.6 -16.9 -3 -17.6 -2.7 -33.3 -4.3 -79.4 -8 -21.3 -1.7 -29.1 -2.7 -29.8 -3.7 -1 -1.4 -0.4 -21.2 0.8 -28.1 l0.7 -3.8 -3.7 0 c-3.5 0 -3.6 -0.1 -3.6 -3.5 0 -3.3 0.2 -3.5 3.5 -3.5 3.3 0 3.5 0.2 3.5 3.3 0.1 1.8 1.8 -3.3 3.9 -11.3 2.1 -8 5.7 -21.5 7.9 -30 5.6 -21.1 6.8 -31.4 4.8 -40.5 -0.8 -3.8 -1.8 -8 -2.2 -9.2 -0.5 -1.7 -0.1 -2.4 1.2 -2.9 1.1 -0.3 4.9 -1.9 8.5 -3.4 15.1 -6.5 30.1 -7.4 47.9 -2.9 16.4 4.2 16.6 4.3 33.5 24.5 16.4 19.6 32.8 44.3 38.1 57.4 1.3 3.2 3 8.9 3.8 12.7 l1.4 6.8 -5.8 10 c-9.9 16.8 -13.2 24.7 -13.8 32.6 -0.4 5.6 -0.8 6.9 -2.2 6.9 -0.9 0 -1.9 -0.2 -2.1 -0.4z"/>
 </g>
 <g fill="#ff4f6b">
  <path d="M721 209.2 c-3 -0.9 -5.9 -2 -6.3 -2.6 -0.4 -0.6 -0.6 -4.2 -0.4 -8.1 0.4 -7.7 2.6 -12.7 13.1 -30.5 3.1 -5.2 6.4 -11.7 7.4 -14.3 1.9 -5.2 3.3 -6.1 9.8 -5.5 l3.9 0.3 0.3 5.1 c0.4 6.5 -2.2 13.1 -10.6 27.4 -7.9 13.2 -10.5 20.2 -9.9 25.8 0.5 4.7 0.7 4.7 -7.3 2.4z"/>
  <path d="M571.5 186.8 c-2.6 -9.2 -3.5 -15.8 -3.5 -26.2 0 -15.9 2.4 -27.5 11.6 -55.9 6.2 -19 8.4 -27.6 8.4 -32.7 0 -2.9 0.8 -4.4 4 -7.5 2.7 -2.6 4.3 -3.6 5 -2.9 1.5 1.5 4 14 4 19.9 0 7.9 -2.6 22.8 -6.5 37 -11.5 42.3 -14.4 57.2 -13 68.2 l0.6 5.3 -4.5 0 -4.5 0 -1.6 -5.2z"/>
  <path d="M799 164.1 c0 -1.2 -0.5 -3.2 -1.1 -4.3 -1 -1.8 -0.1 -3.1 8.2 -11.5 15.4 -15.4 23.3 -20.7 35.9 -23.7 7.3 -1.8 23.9 -3.5 24.5 -2.6 0.2 0.4 3.8 1.5 7.9 2.5 11.8 2.9 10.3 4 -7.4 5 -20 1.1 -29.9 3.6 -38.7 9.6 -2.6 1.8 -10.3 8.7 -17 15.3 -9.7 9.4 -12.3 11.4 -12.3 9.7z"/>
 </g>
 <g fill="#d08e81">
  <path d="M330 948.1 c0 -2.9 0.3 -3.1 3.6 -3.1 3.9 0 3.8 0.9 -0.6 4 l-3 2.1 0 -3z"/>
  <path d="M777.7 871.3 c-0.4 -0.3 -0.7 -3 -0.7 -5.9 0 -4.3 0.4 -5.5 2 -6.4 1.3 -0.7 2 -2.1 2 -3.9 0 -3.5 1.3 -4.6 6.5 -5.6 3.9 -0.7 3.9 -0.7 2.2 1.3 -1.1 1.2 -1.4 2.2 -0.8 2.6 0.5 0.4 1.2 0.2 1.5 -0.3 0.3 -0.5 3.1 -1.2 6.1 -1.6 3.4 -0.4 8.4 -2.2 13.3 -4.7 52.7 -27.5 90.3 -97.8 114.2 -213.6 4.3 -20.8 4.5 -25.7 1.4 -28.3 -1.3 -1.1 -1 -1.5 2.3 -3 2.1 -1 5 -1.8 6.6 -1.9 2.5 0 2.7 0.3 2.7 4.5 0 3.5 0.3 4.3 1.5 3.9 1.8 -0.7 1.8 -0.7 0.1 8.6 -0.8 4.1 -2.2 12.9 -3.1 19.5 -8 59.4 -28.1 119.9 -54 162.7 -12.9 21.2 -33.1 44.2 -48.5 55 -14.9 10.6 -34.3 17.8 -47.4 17.8 -4 0 -7.6 -0.3 -7.9 -0.7z"/>
  <path d="M274 861.1 c0 -2.9 0.3 -3.1 3.6 -3.1 3.9 0 3.8 0.9 -0.6 4 l-3 2.1 0 -3z"/>
  <path d="M288.7 820.9 c-3.4 -3.3 -5.2 -5.6 -4 -5 1.2 0.6 2.9 1.1 3.8 1.1 1.3 0 1 -0.8 -1.4 -3.7 -3.9 -4.8 -10.1 -11.9 -12.4 -14.5 -4 -4.3 -14.4 -35.9 -17.1 -51.8 -2.9 -17.5 -8.2 -74.2 -7 -76.1 1.8 -2.9 5.7 3.4 8.2 13.2 1.6 6.2 11.1 18.9 22.6 30.5 17.4 17.4 28.7 24 57.3 33.4 28 9.1 43.8 11.9 71.8 12.6 9.9 0.3 18.8 0.6 19.7 0.8 2.5 0.3 6.7 4.6 6.2 6.1 -0.3 0.7 -0.1 1.6 0.5 2 2.5 1.5 0.6 2.3 -9.1 4.4 -20.2 4.1 -41.8 5.2 -62.9 3 -34 -3.4 -64.3 -16 -87.3 -36.3 l-6.9 -6 0.7 3.4 c0.4 1.9 2.3 9.4 4.2 16.5 5.1 19.1 11.3 32.8 21.5 47.3 2.2 3 3.9 6.1 3.9 6.7 0 0.6 1.1 2.2 2.5 3.5 2.1 2 2.5 3.3 2.5 8.1 0 6.4 -0.5 6.9 -7.2 6.9 -3.6 0 -4.7 -0.7 -10.1 -6.1z"/>
  <path d="M536.3 819.6 c-2.7 -1.3 -3 -3.1 -0.7 -4 2.2 -0.8 1.2 -4.6 -4.6 -16.9 -18.7 -39.8 -23.4 -86 -14.4 -139.5 3.4 -20.3 7 -34.3 17.9 -69.2 12.8 -40.9 25.7 -74.6 46.7 -121.9 7 -15.8 7.9 -18.1 7.3 -18.1 -0.3 0 -4.7 8.4 -9.9 18.7 -5.2 10.4 -9.5 18.4 -9.5 17.8 0 -0.5 4 -10 8.8 -21 l8.9 -20 3.9 -0.3 4 -0.3 7 12.8 c3.9 7 8.5 15.7 10.3 19.3 1.8 3.6 3.9 6.9 4.6 7.5 0.7 0.5 5.4 7.3 10.5 15 47.1 71.5 102.8 119.5 161.6 139.2 12.6 4.2 34 9.3 39.2 9.3 2.2 0 2.3 0.3 1.9 5.5 -0.3 3 -0.7 5.8 -1 6.1 -0.3 0.3 -3.2 0.1 -6.4 -0.5 -3.3 -0.6 -11.3 -1.5 -17.9 -2 -21.6 -1.9 -45.1 -8.4 -65 -18.1 -43.4 -21.2 -79 -58.1 -113 -117.3 -4.9 -8.6 -9.3 -15.7 -9.6 -15.7 -0.3 0 -3 5.1 -5.9 11.3 -31.8 67.6 -51.8 131.5 -59.9 191.2 -2.5 17.9 -3.7 23.2 -5.6 25.2 -1.8 1.8 -2 5.2 -0.2 5.9 1 0.3 1.3 7.3 1.2 32.2 0 28.3 0.2 32 1.8 34.9 2 3.7 2.3 11.3 0.5 13.1 -1.5 1.5 -9.5 1.4 -12.5 -0.2z"/>
  <path d="M265.8 808.6 c-0.8 -0.7 -2.9 -1.7 -4.6 -2.1 -1.8 -0.3 -3.2 -1 -3.2 -1.5 0 -0.4 -1.6 -1.1 -3.5 -1.4 -2.8 -0.6 -3.5 -1.1 -3.5 -3 0 -3.3 1.8 -2.8 19.3 4.7 1.5 0.6 2.7 1.5 2.7 1.9 0 0.4 0.7 0.8 1.5 0.8 0.8 0 1.5 0.5 1.5 1 0 1.5 -8.7 1.2 -10.2 -0.4z"/>
  <path d="M531.1 808.2 c-0.7 -1.3 -1.1 -2.6 -0.8 -2.8 0.8 -0.8 2.9 2.5 2.5 3.8 -0.3 0.8 -0.9 0.4 -1.7 -1z"/>
  <path d="M904 799.5 c0 -3.1 0.3 -3.5 2.5 -3.5 2.3 0 2.5 0.3 1.9 2.8 -0.9 3.7 -1.3 4.2 -3 4.2 -0.9 0 -1.4 -1.1 -1.4 -3.5z"/>
  <path d="M916.6 800.4 c-2.2 -2.2 -2.1 -2.4 1.9 -2.4 3.7 0 4.9 2.2 1.9 3.4 -2.1 0.8 -2 0.8 -3.8 -1z"/>
 </g>
 <g fill="#ff6cac">
  <path d="M397.3 972.9 c-18.4 -3.3 -25.8 -25.4 -13 -38.7 4.4 -4.6 7.1 -5.8 14.8 -6.6 6.8 -0.7 11.9 -0.1 11.9 1.5 0 0.6 -1.6 2.5 -3.5 4.5 -2.7 2.6 -3.5 4.3 -3.5 6.9 0 2.4 -0.5 3.5 -1.5 3.5 -0.8 0 -1.5 -0.7 -1.5 -1.5 0 -4 -8.5 -4.6 -12.9 -0.9 -6 5 -3.6 14 5.7 21.1 2.9 2.2 5.5 3.3 7.7 3.3 6 0 16.5 -10 16.5 -15.6 0 -1.7 -0.4 -2.2 -1.5 -1.8 -2 0.8 -2 -3.4 0 -6 0.8 -1.1 1.5 -3.5 1.5 -5.3 0 -5 2.2 -4 4.8 2.2 7.5 18.6 -6.3 36.7 -25.5 33.4z"/>
  <path d="M646.2 926.4 c-14.7 -7.3 -17.8 -26.7 -6.1 -38.3 4.8 -4.9 10.3 -7.1 17.7 -7.1 10.6 0 18.4 4.7 22.8 13.6 2.3 4.8 2.6 6.3 2.2 12.4 -0.4 5.8 -1.1 7.6 -4 11.7 -7.2 10.1 -21.2 13.4 -32.6 7.7z m19.4 -6.6 c7.8 -5.4 10.7 -9.8 11.1 -17.1 0.4 -5.5 0.2 -6 -1 -4.4 -2.1 2.5 -2.7 2.1 -2.7 -1.6 0 -3.6 -2 -7.1 -5.1 -8.8 -2.5 -1.3 -6.4 0.9 -8.1 4.7 -1.2 2.6 -3.8 3.3 -3.8 1 0 -2.8 -7.2 -3.6 -11.9 -1.2 -7.3 3.8 -6.6 16.2 1.6 23.7 4.2 4 9.5 6.9 12.4 6.9 1.5 0 4.8 -1.5 7.5 -3.2z"/>
  <path d="M345.8 883.5 c-12.3 -2.4 -20.8 -12.6 -20.8 -24.8 0 -10.3 3.9 -17.5 12.3 -22.9 4.9 -3.1 5.7 -3.3 14.2 -3.3 7.7 0 9.6 0.3 13.3 2.4 5.1 3 5.3 4.1 0.8 4.1 -4.2 0 -8.3 3.2 -9.4 7.2 -0.9 3.7 -3.2 5 -3.2 1.8 0 -1.2 -0.4 -1.8 -1 -1.5 -0.5 0.3 -2 -0.1 -3.2 -0.9 -3.8 -2.7 -9.5 -2 -12.9 1.3 -5.7 5.8 -3.3 16.1 5.7 24 7.8 6.8 11.7 6.7 19.4 -0.5 4.8 -4.5 8 -9.7 8 -12.9 0 -1.1 -0.5 -1.5 -1.5 -1.1 -2.2 0.8 -1.9 -3.1 0.5 -6.1 1.2 -1.6 2 -4.1 2 -6.4 0 -4.7 0.8 -4.9 3.7 -0.6 3.3 4.9 4.3 8.3 4.3 15 0 7.4 -2.3 12.9 -7.4 18 -6.7 6.8 -15 9.2 -24.8 7.2z"/>
  <path d="M628.5 840.2 c-9.5 -3.4 -17.7 -11.1 -20.4 -19.1 -2.5 -7.6 -0.9 -17.3 3.8 -22.5 4 -4.5 13.5 -10.3 20.8 -12.7 15.9 -5.3 33.8 1.6 40.7 15.6 7.4 15.1 -0.9 32.7 -17.9 38.1 -7.8 2.5 -21 2.8 -27 0.6z m19.4 -8.4 c4.8 -2.8 8.7 -6.4 12.2 -11.2 3.4 -4.5 3.7 -6.1 1 -4.6 -1.1 0.5 -2.2 1 -2.5 1 -1 0 1.9 -5.4 4.2 -7.9 3.2 -3.5 3.7 -6.5 1.5 -10.1 -2 -3.4 -7 -7 -9.8 -7 -2.8 0 -7.8 3.6 -9.8 6.9 -1.9 3.2 -4.7 4.2 -4.7 1.7 0 -2.3 -4.1 -4.6 -8.3 -4.6 -13.9 0 -17.2 16.1 -5.8 28.4 4.2 4.6 12.3 9.6 15.5 9.6 1.6 0 4.5 -1 6.5 -2.2z"/>
  <path d="M604.7 742.1 c-20.5 -8.3 -26.3 -33.4 -11.3 -48.5 2 -2 6 -4.8 8.9 -6.3 4.6 -2.5 6.3 -2.8 14.7 -2.8 8 0 10.4 0.4 15.2 2.5 6.4 2.8 7.6 5 2.6 5 -3.7 0 -9.2 3.9 -11.3 8.1 -1.8 3.4 -3.5 3.8 -3.5 0.8 0 -1.1 -0.5 -1.7 -1 -1.4 -0.6 0.4 -2.4 -0.5 -4.1 -1.9 -4.7 -3.9 -10.8 -3.6 -15.6 0.8 -3.3 3 -3.7 3.9 -4.1 9.2 -0.7 9.8 4.2 18.7 14.2 26.1 7 5.2 9.6 5.4 15.9 1.2 5.8 -3.8 10 -8.6 13.2 -14.9 3 -6 3.1 -6.3 0.4 -5.5 -1.8 0.6 -2 0.4 -1.4 -1.7 0.4 -1.2 2.1 -3.8 3.6 -5.6 1.6 -1.8 2.9 -4.4 2.9 -5.7 0 -4.2 2.5 -2.8 4.4 2.5 5.5 15.3 -2.5 32.3 -17.7 37.8 -6.8 2.4 -20.3 2.6 -26 0.3z"/>
 </g>
 <g fill="#f790af">
  <path d="M926.4 934 l-2.1 -5.8 10.9 -11.4 c28.9 -30 57.1 -76.4 74.7 -122.9 16.7 -44.2 27 -90.3 33.6 -150.2 1.9 -17.5 1.9 -26.3 0 -49 -8.1 -94.8 -33 -172.1 -82.6 -256.9 -6.5 -10.9 -6.9 -12.1 -6.9 -17.7 0 -3.3 0.4 -6.2 0.9 -6.6 2.2 -1.3 9 7.8 29.8 39.5 29.6 45.1 48.1 76.2 56.9 95.8 4.1 9 13.2 37.1 16.8 52.1 15.4 62.8 18.8 137.8 9 198.6 -3.5 21.6 -12.3 56.8 -16 63.5 -0.7 1.4 -3 7 -5 12.5 -13.9 37.8 -36 71 -83.9 125.6 -6 6.9 -15.6 18 -21.3 24.6 -5.6 6.7 -10.8 12.6 -11.5 13.1 -0.9 0.8 -1.8 -0.4 -3.3 -4.8z"/>
  <path d="M864.1 909.5 l-3.1 -5.4 18.3 -27.3 c19.3 -28.9 26 -40.8 27.6 -49.8 0.5 -3 1.5 -6.8 2.2 -8.5 0.7 -1.6 1.5 -5 1.8 -7.5 0.7 -5 1.7 -5.4 7.9 -2.9 3 1.3 3.7 1.2 7 -0.7 2.3 -1.4 3.8 -3.1 4 -4.5 0.2 -1.3 3.5 -6.8 7.4 -12.2 19.1 -26.6 24.4 -42 34.9 -101.5 5 -28.5 5.4 -30.3 7.3 -30 2.8 0.4 3.4 5.4 3.5 26.8 0.2 33.8 -6.1 66.2 -19.1 99.3 -14.7 37.4 -38.5 74.7 -66 103.3 -9.6 10 -28.2 26.4 -29.9 26.4 -0.4 0 -2.1 -2.5 -3.8 -5.5z"/>
  <path d="M259.5 796.7 c-13 -6.9 -18.5 -10.7 -18.5 -12.7 0 -0.9 -0.7 -2.3 -1.5 -3 -2.4 -2 -7.3 -19.2 -8.6 -30.3 -2.3 -20.2 0 -54.7 5.7 -83.2 2.7 -13.9 3.3 -15.5 5.4 -15.5 1.4 0 2 0.7 2 2.1 0 5.5 4.3 58.5 6 74.2 2.8 25.6 7.5 47.1 12.1 55.7 1.6 3.1 6.9 15.8 6.9 16.7 0 0.8 -2.1 -0.1 -9.5 -4z"/>
  <path d="M406.6 756.9 c-2.7 -0.6 -5.4 -1.6 -6 -2.3 -0.6 -0.8 -3.1 -1.7 -5.5 -2 -3.6 -0.6 -6.1 -2.1 -12.9 -7.8 -34.6 -29.5 -56 -76.5 -61.7 -136.2 -3 -31.3 -1.8 -80.2 3 -122.1 4 -34.7 14 -92.7 17.1 -98.6 0.7 -1.5 3.5 -4.7 6.1 -7.3 3.7 -3.5 5.6 -4.6 8.1 -4.6 3.2 0 3.2 0 3.2 4.9 0 2.7 -1.1 13.6 -2.5 24.2 -1.3 10.7 -3.1 28.6 -4 39.9 -0.8 11.3 -1.9 24.6 -2.4 29.5 l-0.8 9 -0.3 -10.5 c-0.5 -19.2 -1.8 -2.8 -1.9 24.2 -0.2 59 6.7 106.6 22.4 154.8 9.4 28.6 23.2 58.6 39.5 85.7 11.8 19.7 11.7 21.7 -1.4 19.2z"/>
  <path d="M496.3 727.8 c-2 -4 -3.3 -9 -3.3 -12.3 0 -1.8 -0.6 -4.5 -1.4 -6.1 -1.9 -4.1 -4 -43.3 -3.1 -59.8 2.2 -44.5 11.5 -92.2 29.5 -152.5 9.3 -31.1 26 -76.6 37.2 -101.1 l3.4 -7.5 -3.2 -16 c-3.6 -17.2 -4.4 -31.8 -2.3 -40.1 1 -4 1.4 -4.4 4.3 -4.4 4.8 0.1 8.8 7.5 11.1 21 1 5.8 2.8 14.9 4.1 20.3 1.3 5.4 2.4 10.1 2.3 10.5 0 0.4 -1.5 -3.1 -3.4 -7.8 -1.9 -4.7 -3.4 -7.8 -3.4 -7 -0.1 2.5 7.6 30.9 11.3 42 2 5.8 3.6 11.3 3.6 12.3 0 0.9 3 7.6 6.6 14.9 6.8 13.5 7 15.6 1.8 14.3 -2.6 -0.6 -3.5 1 -16.5 27.5 -25.2 51.3 -36.9 80.1 -50.9 125.6 -14 45.6 -20 79.6 -20 114.7 l0 13.7 -3.3 0 c-2.5 0 -3.6 -0.6 -4.4 -2.2z"/>
  <path d="M387.9 693.9 c-9.5 -19 -17.7 -41.2 -23.3 -63.6 -3.6 -14.3 -3.1 -15.1 0.8 -1.3 7 24.5 14.3 44.4 24 65.4 2.5 5.3 4.3 9.6 4.1 9.6 -0.3 0 -2.8 -4.6 -5.6 -10.1z"/>
  <path d="M833.8 643 c-0.4 -1.4 -0.9 -3.4 -1.1 -4.5 -0.3 -1.2 -0.5 -0.8 -0.6 1.2 0 1.7 -0.7 3.3 -1.3 3.5 -1 0.4 -8.4 -0.9 -9.5 -1.6 0 -0.1 -2.2 -11.1 -4.8 -24.6 -12.6 -66.5 -24.3 -115.3 -36.5 -151.8 -3.2 -9.4 -4 -13.4 -3.8 -17.5 l0.3 -5.2 6 0 c5.6 0 6 0.1 6.3 2.5 0.2 1.4 2.6 9 5.3 17 13.3 38.8 22 75.9 28.9 123.5 3.2 21.6 8.7 51.6 8.9 48 0.1 -1.1 -0.6 -7.8 -1.4 -14.9 -0.8 -7.1 -1.4 -13.1 -1.2 -13.2 0.8 -0.9 5.8 30.7 5.5 35.1 -0.3 3.9 -0.5 4.5 -1 2.5z"/>
  <path d="M921.8 594.5 c0.4 -7.1 0.6 -27.1 0.6 -44.3 l-0.1 -31.3 3.4 0.3 c3 0.3 3.9 1.1 7.1 6.1 4.6 7.5 5.3 11.6 5.9 36.8 0.4 17.1 0.2 21.4 -1.1 25.3 -0.9 2.5 -1.9 7.1 -2.2 10.1 -0.6 5.1 -1 5.7 -4.2 7.2 -5 2.4 -6.8 0.9 -6.5 -5.3 1 -25.2 1.3 -65.2 0.4 -71.4 -0.8 -6.6 -0.9 -5.7 -0.5 6.5 0.6 15.5 -1.2 62.7 -2.6 69 -0.6 2.5 -0.7 -0.8 -0.2 -9z"/>
  <path d="M841.1 304.7 l-6.1 -7.6 4.7 -0.6 c18.9 -2.3 23 -3.5 28.8 -8.7 7 -6.1 9.6 -14.6 11.6 -37.3 l1.2 -14.1 3.7 -2.7 c3.6 -2.6 3.8 -2.6 5.4 -0.8 1.6 1.7 1.6 3.3 0.1 23.2 -2.5 34.5 -6.5 45.2 -19.7 52.4 -4.5 2.5 -6.7 3 -14.4 3.3 l-9.1 0.4 -6.2 -7.5z"/>
 </g>
 <g fill="#ffaec9">
  <path d="M267.3 994.4 c-2.5 -1.1 -3.3 -2 -3.3 -4 0 -2.3 0.3 -2.5 3.8 -2.2 3.5 0.3 3.7 0.5 4 4.1 0.4 4.1 0.2 4.2 -4.5 2.1z"/>
  <path d="M254.2 971.8 c-39.5 -43.5 -66.6 -82.6 -89.7 -129.3 -26.4 -53.4 -40.3 -100.5 -47.2 -160 -2.1 -18.7 -2.5 -77.6 -0.5 -95.5 7.1 -63.8 20.5 -114.1 46.1 -172.5 22.3 -50.7 62.7 -116.7 85.7 -139.8 33.1 -33.4 65 -49.5 186.9 -94.2 17.6 -6.5 33.6 -12.5 35.5 -13.5 3.2 -1.6 30 -10.5 72.4 -23.9 8.7 -2.8 16.9 -5.1 18.2 -5.1 2.2 0 2.3 0.1 0.8 3.5 -2.2 5.4 -1.8 21 1 34.5 1.3 6.3 2.7 12.3 3.1 13.2 0.6 1.5 -0.2 1.7 -6.7 2 l-7.3 0.3 -0.3 4.8 c-0.3 4.7 0.4 5.7 2.6 3.5 0.9 -0.9 1.2 -0.4 1.2 2.5 l0 3.7 37.3 0 c41.7 0 62.8 1 84.4 4.1 26.9 3.7 37.9 6.7 64.6 17.4 6 2.4 11.5 4.1 12.3 3.8 0.8 -0.3 2.5 0.3 3.7 1.4 1.2 1.1 4 3 6.2 4.3 7.4 4.4 20 14.7 28 23.1 14.7 15.4 27.5 31 27.5 33.6 0 1.7 0.7 2.7 2 3 1.3 0.3 5.2 5.2 9.6 12 l7.6 11.4 4.6 -0.3 c4 -0.3 4.7 -0.6 5 -2.5 0.2 -1.3 -0.6 -3.6 -1.7 -5.2 l-2.1 -2.9 8.8 -0.4 c13.3 -0.6 21 -5.4 26.6 -16.7 3.9 -7.6 5.5 -16.6 7.1 -38.6 0.8 -11.5 1.7 -21 1.8 -21.2 1.2 -1.1 34.7 38.5 55.7 65.9 12.3 16.1 12.8 16.9 12.3 20.7 -0.5 3.4 0.2 5.2 6.4 15.7 49.8 85 74.7 162.3 82.8 257.1 2.4 29.4 1.9 42.7 -3.1 80.3 -12 90.2 -39.5 163 -84.7 223.9 -8 10.9 -31.6 36.3 -32.8 35.5 -1.8 -1.1 -0.8 -3.8 4.9 -13.3 11.1 -18.3 25.2 -44.8 25.2 -47.4 0 -2.7 -2.5 -4.2 -5.1 -3.2 -0.8 0.3 -3.6 4.7 -6.3 9.8 -22.5 42.4 -34.5 59.8 -49.4 72 -7.6 6.3 -33.3 23.9 -33.9 23.3 -0.2 -0.2 1.4 -6.9 3.6 -14.8 6.7 -24.5 7.1 -32.6 2.4 -42.6 -0.9 -1.9 -1.2 -3.6 -0.7 -4.1 0.5 -0.4 4.8 -3.9 9.5 -7.9 40.8 -34 77.8 -91.9 93.3 -145.9 4.4 -15.1 8.1 -34.3 9.7 -50 1.6 -16 0.8 -41.6 -1.5 -45.8 -0.9 -1.7 -1.6 -5.4 -1.6 -8.6 0 -4.1 -0.4 -5.8 -1.5 -6.3 -1.1 -0.4 -1.5 -2.3 -1.5 -7.8 -0.1 -23.8 -11 -40.8 -26.1 -40.8 -4.7 0 -9.9 2 -9.9 3.8 0 1.2 -1 1.8 -3.6 2 -3.1 0.2 -3.5 0 -2.9 -1.5 0.4 -1 0.7 -2.5 0.8 -3.3 0 -0.8 0.9 -4.9 2 -9 1.7 -6 2.2 -10.8 2.3 -24 0.3 -24.3 -1.8 -33.8 -9.1 -42.5 l-2.6 -3 0.6 14.5 c0.4 8 0.2 25.1 -0.4 38.1 -1.6 35.6 -4.8 60.4 -11.1 86.5 -15.5 64.1 -36 112.6 -61.1 144.7 -6.2 7.9 -19.3 21.1 -26.2 26.3 l-6.2 4.6 -0.3 -2.7 c-0.2 -1.7 0.4 -3.5 1.6 -4.9 7.4 -8 23.1 -37.7 28.6 -54 10.5 -31 14.4 -65.2 11.6 -101.7 -4.4 -56.3 -20.9 -118.8 -53 -200.9 -5.4 -13.8 -8.1 -19.4 -10.6 -21.9 -1.8 -1.9 -3.6 -3.3 -3.9 -3 -0.2 0.3 1.6 6.6 4 14 11.1 32.7 19 64.5 25 99.9 2.9 17.1 3.2 22.9 0.4 8.5 -7 -35.8 -23.2 -99.5 -31.2 -122 -1.2 -3.5 -1.5 -3.7 -2.1 -1.9 -0.4 1.4 1.1 7.4 4.4 17 12 35.3 21 72 27 110.1 1.1 7.2 2 13.8 1.9 14.5 0 0.7 -2.3 -9 -5 -21.7 -9.5 -44.5 -24.2 -99.5 -30.8 -114.8 -1.9 -4.3 -2.4 -4.8 -4.8 -4.5 -4.1 0.4 -4 3 0.7 17 8.9 26.6 17.3 58.7 26 99.3 5 23.5 15 74.8 15 77.2 0 2.1 -4.2 1.5 -12 -1.7 -8.6 -3.5 -9 -3.6 -9 -1.1 0 2.4 -1.6 2 -13.5 -3.2 -51.1 -22.1 -95.4 -54.7 -127.1 -93.6 -8.3 -10.1 -9.2 -11.7 -7.4 -12.1 1.9 -0.5 1.8 -0.8 -1.4 -5.3 -3.4 -4.8 -3.5 -4.8 -3.8 -2 -0.3 2.7 -0.6 2.4 -6 -4.7 -5 -6.5 -5.5 -7.5 -3.8 -7.8 2.5 -0.4 2.5 -1 0 -4.2 -2 -2.5 -2 -2.5 -2 -0.2 0 1.2 -0.3 2.2 -0.7 2.2 -2 -0.1 -24.6 -36.9 -32.3 -52.5 -2.7 -5.5 -7.7 -16.3 -11 -24 -5.5 -12.9 -5.8 -14 -4 -14.3 1.1 -0.2 2 -0.6 2 -1 0 -0.4 -2.1 -5.6 -4.6 -11.7 -2.5 -6 -7.2 -18.2 -10.5 -27 -5.9 -15.8 -8.1 -20.3 -10.5 -21.7 -0.6 -0.5 -1.5 -3.2 -1.9 -6 -0.4 -3.3 -2 -7.3 -4 -10.6 l-3.3 -5.2 -1.1 4.4 c-1.9 7.7 -1.2 17.3 2.7 36.2 l3.7 18.1 -3.8 8.4 c-11.2 24.2 -28.2 70.2 -37.7 102 -19 63.5 -28.7 115.4 -29.3 156.4 -0.3 21.7 1.1 46.3 2.9 49.9 0.8 1.6 1.4 4.3 1.4 6 0 3.4 1.9 10 3.7 13.1 0.9 1.6 1.3 1.7 2.7 0.6 1.4 -1.2 1.6 -0.7 1.6 4.7 0 3.3 0.6 7.3 1.4 8.9 0.8 1.5 2.2 7.1 3.1 12.3 3 17.6 13.3 47.6 17.3 50.7 1.5 1.1 1.2 1.2 -2.1 1.3 -2.4 0 -5.2 -1 -8 -2.7 -74 -48 -119.9 -125 -136.1 -228.3 -3.9 -24.6 -5 -41.2 -5 -76 0 -25.4 0.5 -39 1.7 -51.5 6.2 -60.7 17.2 -106.2 40.2 -165.8 0.6 -1.4 0.2 -1.7 -2.4 -1.7 -2.7 0 -3.1 -0.3 -3.1 -2.7 l-0.1 -2.8 -2.5 3 c-4.8 5.6 -18.4 26.8 -23.3 36.4 -9.9 19.4 -21.6 50.2 -25.2 66.4 -0.9 4.4 -1.6 5.7 -3.1 5.7 -1.3 0 -1.8 -0.7 -1.8 -2.6 l0 -2.7 -4.4 3.9 c-7.8 7 -8.5 9 -15 45.9 -12.2 68.2 -16.5 131.4 -12.1 177.1 5.7 59.7 26.8 106.3 61.7 136.1 4.8 4.2 8.8 7.8 8.8 8.1 0 0.2 -3 0.2 -6.7 -0.2 -6.4 -0.6 -11.1 -2.6 -30.5 -12.4 -0.5 -0.2 -0.8 1 -0.8 2.7 0 2.9 -0.3 3.1 -3.5 3.1 -3.3 0 -3.5 -0.2 -3.5 -3.4 0 -3 0.4 -3.5 2.7 -3.8 2.5 -0.3 2.2 -0.6 -3.3 -4.2 -40.5 -26.8 -70.4 -72.8 -85.9 -132.1 -8.4 -32.1 -11.6 -57.9 -12.2 -101.3 -0.6 -33.7 0.3 -55.6 3.3 -81.2 0.8 -6.9 1.7 -14.7 1.9 -17.5 l0.6 -5 -3.1 8 c-15.2 39.6 -22.6 77.4 -23.7 121.5 -0.6 24.7 0.8 43.6 4.2 56.3 2 7.8 2 11.1 -0.1 10.3 -2.2 -0.8 -4.4 1.1 -4.4 3.8 0 1.2 3.2 14 7.2 28.6 3.9 14.6 7.1 27.9 7.1 29.5 -0.1 1.7 -1.3 8 -2.6 14 -6.3 27.1 -9.1 61.2 -6.8 81.2 1.3 11.1 6.2 28.3 8.6 30.3 0.8 0.7 1.5 1.8 1.5 2.5 0 0.8 0.8 2.7 1.7 4.4 2.3 3.9 1.2 4.9 -2.6 2.1 -2.2 -1.5 -3.1 -3 -3.1 -5 0 -2.1 -0.6 -2.9 -2.4 -3.4 -2.8 -0.7 -14.8 -13.8 -23.7 -25.8 -5 -6.8 -5.9 -7.6 -5.9 -5.3 0 2.4 -0.3 2.6 -3.7 2.3 -3.6 -0.3 -3.8 -0.5 -4.1 -4 -0.3 -3.7 -0.2 -3.8 2.8 -3.8 l3.2 0 -3.2 -5.2 c-21.1 -35.7 -36.4 -82.7 -47.4 -145.8 -1.9 -11.3 -4 -24.3 -4.6 -29 -1.2 -9.7 -3.4 -15 -6.2 -15 -1 0 -1.8 -0.7 -1.8 -1.5 0 -2.2 -4.7 -1.9 -6 0.4 -1.3 2.5 -1.3 43.5 0 67.6 3.5 63.9 15.5 98 45 128.9 8 8.4 10.2 11.4 12.8 17.6 1.7 4.1 11.1 35.2 20.8 69 27.2 95 32.7 111.2 47.5 139.9 4.3 8.5 7.9 15.6 7.9 15.8 0 0.2 -1.1 0.3 -2.4 0.3 -1.8 0 -5.4 -3.3 -14.4 -13.2z m732.4 -149.1 c18.3 -33 30.6 -75 34.4 -116.7 0.5 -6.3 1 -21.4 1 -33.5 -0.1 -37.8 -5 -74.9 -16.1 -120.2 -3.6 -14.7 -6.9 -25.7 -5.5 -18.3 3.5 18.4 6.6 40.2 8.8 62.5 2 20.2 1.7 81.8 -0.5 102.5 -5 45.5 -14.5 88.1 -28.7 128.8 -2.2 6.2 -4 11.6 -4 12 0 1 5.3 -7.5 10.6 -17.1z m-57.7 -365.9 c-1.2 -7.1 -2.4 -12.6 -2.6 -12.4 -0.3 0.2 0.5 6.2 1.6 13.3 1.2 7.1 2.2 14.2 2.3 15.9 0.1 2.7 0.1 2.7 0.5 -0.5 0.3 -1.9 -0.5 -9.2 -1.8 -16.3z m-3.5 -18.2 c-0.3 -2.1 -0.8 -3.5 -1.1 -3.2 -0.2 0.2 -0.1 2 0.3 4 0.3 2.1 0.8 3.5 1.1 3.2 0.2 -0.2 0.1 -2 -0.3 -4z m-1.9 -8.6 c-0.9 -4.1 -1.7 -3.3 -0.9 0.9 0.4 1.7 0.9 3 1.1 2.7 0.3 -0.2 0.2 -1.9 -0.2 -3.6z m-496.8 -173.7 c-0.2 -0.1 -3.6 3.1 -7.7 7.2 l-7.4 7.5 3.2 0 c2.8 0 3.2 0.3 3.2 2.8 0 1.9 1.3 -0.2 4.5 -7.2 2.5 -5.5 4.3 -10.1 4.2 -10.3z"/>
  <path d="M186.4 935.7 c-17.7 -18.7 -31.1 -38.2 -43.9 -63.8 -9 -17.8 -9 -17.9 -6.2 -17.9 1.8 0 2.9 1.3 5.1 5.8 11.7 24.1 34.5 57.8 50.3 74.3 3.7 3.9 4.4 5.2 4.1 7.9 l-0.3 3.3 -9.1 -9.6z"/>
  <path d="M1007.3 844.8 c12.9 -18.6 26.1 -42.1 33.8 -60.3 4.5 -10.9 4.6 -11.1 5.4 -10.3 0.6 0.6 -7 19 -12 28.8 -6.9 13.5 -31.2 51 -33.1 51 -0.3 0 2.4 -4.2 5.9 -9.2z"/>
  <path d="M806 836.1 c0 -4.9 0.9 -6.1 4.7 -6.1 3.4 0 3.4 0 3.1 4.3 -0.3 4.1 -0.4 4.2 -4 4.5 -3.6 0.3 -3.8 0.2 -3.8 -2.7z"/>
  <path d="M446.5 766.7 c-13.4 -10.6 -31.9 -30.2 -41.3 -43.7 -31.8 -45.8 -50.1 -109.1 -53.8 -186.2 -0.7 -13.4 -0.6 -13.8 1.3 -13.8 1.8 0 2.1 0.9 2.7 9.1 1.9 25.1 8.1 65.5 14 90.9 10.1 43 28.5 84 48.7 108.1 2.1 2.6 3.9 5.4 3.9 6.3 0 0.9 0.5 1.6 1.1 1.6 0.6 0 6.1 5.1 12.3 11.3 6.2 6.3 12.1 11.7 13 12 1 0.4 2 1.6 2.3 2.7 0.3 1.1 1.4 2 2.4 2 1.4 0 1.9 0.7 1.9 3 0 1.7 -0.1 3 -0.3 3 -0.1 0 -3.8 -2.8 -8.2 -6.3z"/>
  <path d="M164.2 701.8 c-5.4 -9.5 -7.3 -14.3 -10.5 -25.8 -4.8 -17.1 -7.8 -40.5 -9.2 -72.7 -0.7 -14.1 -0.6 -14.3 1.4 -14.3 1.8 0 2.1 0.6 2.1 4.8 0 8.2 3 36 5.6 51.1 3.1 18.5 7.5 36 12.1 47.5 3.6 9.4 5.2 16.6 3.6 16.6 -0.5 0 -2.8 -3.3 -5.1 -7.2z"/>
  <path d="M259.5 671.4 c-3 -6.8 -3.1 -8.4 -0.6 -8.4 2 0 3.1 1.8 3.1 5.1 0 1 0.5 1.9 1 1.9 0.6 0 1 1.6 1 3.5 0 5.1 -1.7 4.3 -4.5 -2.1z"/>
  <path d="M255.2 659.8 c-1.4 -3.1 -4.2 -11.9 -4.2 -13.5 0 -0.7 0.8 -1.3 1.8 -1.3 1.3 0 2.3 1.5 3.5 5.3 2.7 8.5 1.9 15.5 -1.1 9.5z"/>
  <path d="M88 605.3 c0 -9.1 0.7 -12.3 2.6 -12.3 1.1 0 1.4 2.2 1.4 10 0 9.3 -0.1 10 -2 10 -1.8 0 -2 -0.7 -2 -7.7z"/>
  <path d="M150 605.5 c0 -3.3 0.2 -3.5 3.5 -3.5 3.3 0 3.5 0.2 3.5 3.5 0 3.3 -0.2 3.5 -3.5 3.5 -3.3 0 -3.5 -0.2 -3.5 -3.5z"/>
  <path d="M89 585.1 c0 -4.5 1.9 -27.5 3.5 -42.1 2 -17.3 3.2 -23 5.2 -23 1.3 0 1.5 0.9 0.9 5.8 -3.1 25.8 -4.6 40.4 -5.2 50.5 -0.6 10.5 -0.9 11.7 -2.5 11.7 -1.4 0 -1.9 -0.7 -1.9 -2.9z"/>
  <path d="M553.1 520.9 c-0.1 -1 11.1 -28.1 20.9 -50.4 5 -11.5 9.4 -21.6 9.7 -22.2 0.5 -1.2 5.3 -1.9 5.3 -0.8 0 0.3 -6 12.6 -13.3 27.3 -7.3 14.7 -15.4 31.2 -17.9 36.7 -2.6 5.5 -4.7 9.7 -4.7 9.4z"/>
  <path d="M1042.7 453.5 c-2.4 -5 -2 -5.8 0.4 -1.2 1.1 2.2 1.9 4.1 1.7 4.3 -0.3 0.2 -1.2 -1.2 -2.1 -3.1z"/>
  <path d="M1037.7 442.5 c-1.5 -3 -2.5 -5.5 -2.2 -5.5 0.7 0 5.7 10.1 5.3 10.6 -0.2 0.2 -1.6 -2.1 -3.1 -5.1z"/>
  <path d="M1029 426 c-1.1 -2.2 -1.8 -4 -1.5 -4 0.2 0 1.4 1.8 2.5 4 1.1 2.2 1.8 4 1.5 4 -0.2 0 -1.4 -1.8 -2.5 -4z"/>
  <path d="M1024.5 418 c-0.9 -1.6 -1.3 -3 -1.1 -3 0.3 0 1.2 1.4 2.1 3 0.9 1.7 1.3 3 1.1 3 -0.3 0 -1.2 -1.3 -2.1 -3z"/>
  <path d="M1020.5 411 c-0.9 -1.6 -1.3 -3 -1.1 -3 0.3 0 1.2 1.4 2.1 3 0.9 1.7 1.3 3 1.1 3 -0.3 0 -1.2 -1.3 -2.1 -3z"/>
  <path d="M1014.4 400.8 c-0.4 -0.7 -1.4 -2.4 -2.2 -3.8 -1.4 -2.4 -1.3 -2.4 0.3 -0.5 2 2.4 3.7 5.5 3.1 5.5 -0.3 0 -0.8 -0.6 -1.2 -1.2z"/>
  <path d="M142.4 391.4 c2.3 -6 22.4 -38.4 23.9 -38.4 0.4 0 0.7 1.6 0.7 3.5 0 1.9 -0.4 3.5 -1 3.5 -0.5 0 -1 0.6 -1 1.3 0 0.7 -0.9 2.3 -2 3.5 -1.1 1.2 -2 2.4 -2 2.7 0 1.7 -10.7 18.5 -11.7 18.5 -0.7 0 -1.3 0.9 -1.3 1.9 0 3.5 -1.2 5.1 -3.7 5.1 -1.9 0 -2.4 -0.4 -1.9 -1.6z"/>
  <path d="M1006.4 387.8 c-0.4 -0.7 -1.4 -2.4 -2.2 -3.8 -1.4 -2.4 -1.3 -2.4 0.3 -0.5 2 2.4 3.7 5.5 3.1 5.5 -0.3 0 -0.8 -0.6 -1.2 -1.2z"/>
  <path d="M1000.6 378.5 c-0.9 -1.4 -2.3 -3.7 -3.2 -5.2 l-1.6 -2.8 2 2.4 c2.4 2.9 5.5 8.1 4.9 8.1 -0.3 0 -1.2 -1.1 -2.1 -2.5z"/>
 </g>
 <g fill="#fef1d9">
  <path d="M569.5 1095.9 c-90.4 -9.6 -154.2 -36.5 -238.5 -100.5 -9.6 -7.3 -25.6 -19.9 -35.6 -28.1 -9.9 -8.1 -20.8 -17 -24.2 -19.8 -11.4 -9.2 -17.6 -25.1 -39.1 -99.5 -10.5 -36.5 -23.5 -77.1 -26.2 -82.2 -1.7 -3.2 0.5 -1.8 8.6 5.3 15.5 13.7 36.9 28.3 43.2 29.5 1.8 0.3 3.3 1 3.3 1.5 0 0.4 1.6 1.1 3.5 1.5 1.9 0.3 3.5 1 3.5 1.5 0 0.4 1.8 1.4 4 2 2.2 0.7 4 1.7 4 2.3 0 1.6 10.1 7.6 12.6 7.6 1.1 0 3.1 1.2 4.5 2.6 3.2 3.5 5.6 4.6 7.9 3.9 2.9 -0.9 2.6 -5.6 -0.5 -8.5 -1.4 -1.3 -2.5 -2.9 -2.5 -3.5 0 -0.6 -1.7 -3.7 -3.9 -6.7 -9.7 -13.9 -16.2 -27.9 -21 -45.3 -3 -10.6 -8.1 -34.3 -8.1 -37.2 0 -0.8 2.4 1.4 5.4 4.9 32.9 38.7 96.7 56.5 155.3 43.4 l9.8 -2.1 8 6 c23.3 17.7 52.6 31.7 81.6 39 5.5 1.4 10.3 2.4 10.7 2.1 0.4 -0.3 2.2 0.2 4 1.1 5.8 2.8 8.7 -0.5 5.6 -6.5 -1.6 -3.2 -1.9 -6.7 -2.2 -26.2 -0.2 -12.4 -0.1 -27.5 0.3 -33.6 l0.7 -11.2 5.8 2.4 c3.3 1.3 11.9 3.9 19.2 5.8 43 11.2 74.6 5.3 96.9 -18.1 8.6 -8.9 20.6 -29.5 19.4 -33.2 -0.3 -1 -4.7 -3.7 -10.3 -6.4 -21.7 -10.3 -35.4 -14 -52.7 -14.1 -18.2 0 -30.6 4 -45.2 14.7 -9.8 7.2 -22.9 24.5 -28.5 37.4 -4.4 10.1 -4.8 6.7 -1.8 -15.7 7.5 -56.3 23.1 -110.6 49 -171 7.5 -17.6 20.1 -44 20.9 -44 0.3 0 2.1 2.8 3.8 6.3 5.4 10.4 21.4 36.6 29 47.7 43.2 62.9 96.7 97.8 157.8 103.1 6.6 0.5 14 1.3 16.5 1.7 l4.5 0.7 0.3 14 c0.9 38.7 -7.9 98 -20.4 138.5 -3.6 11.6 -11.5 29.5 -15.3 34.9 -1.2 1.6 -2.1 3.6 -2.1 4.5 0 0.8 -1.6 2.7 -3.5 4.2 -3.5 2.6 -4.5 5.7 -2.4 7 0.7 0.4 -0.1 1.2 -2 2 -2.7 1.1 -3.2 1.8 -2.9 4.1 0.3 2.5 0.7 2.8 4.7 3.1 9.5 0.7 31.2 -7.8 45.1 -17.6 15.4 -10.8 35.6 -33.8 48.5 -55 18.9 -31.2 35.2 -72.9 45.4 -116.2 2.8 -12.3 6.4 -30.6 7.5 -38.5 0.3 -2.2 1.5 -10.4 2.7 -18.2 l2.1 -14.2 4.4 -1.7 c14.3 -5.5 24.4 8.1 24.4 32.6 0 5.7 0.4 8.1 1.5 9 1.2 1 1.5 3.8 1.5 12.9 0 32.3 -6.6 65.1 -18.5 91.9 -8.2 18.6 -24 45.2 -27.7 46.8 -2.4 1.1 -5.8 0.8 -5.8 -0.5 0 -0.4 -0.9 -1.8 -2 -3.1 -1.3 -1.4 -2 -3.7 -2 -6.2 0 -5.6 -1.7 -4.6 -2.5 1.5 -0.4 2.8 -1 5.6 -1.3 6.2 -0.7 1.1 -0.9 2 -1.8 10.2 -0.4 3.4 -1.1 6.1 -1.7 6 -0.6 -0.1 -1.4 1.6 -1.8 3.8 -2 11.1 -6.2 19 -26 49.3 -10.9 16.7 -19.9 30.8 -19.9 31.3 0 0.5 -0.8 1.7 -1.8 2.7 -0.9 0.9 -5.7 7.6 -10.6 14.7 -51.5 75.4 -83.2 102.2 -163.1 138 -26.6 11.9 -101.1 42.6 -102.9 42.4 -0.6 -0.1 -4.7 -0.5 -9.1 -1z m-153.4 -115.4 c4.6 -0.8 11.8 -2.6 15.9 -4 8.3 -2.8 28.8 -12.7 36.3 -17.5 4.5 -2.9 4.8 -3.3 4.5 -6.7 -0.3 -3.4 -1.1 -4.3 -9.2 -10.4 -10.8 -8.1 -23.3 -14.8 -34.1 -18.3 -12.8 -4.1 -29.5 -5.7 -37.4 -3.7 -2 0.6 -6.5 1.7 -10 2.6 -11 2.9 -24 9.2 -37.1 18 -17.5 11.8 -17.7 12 -16.2 13.8 1.9 2.2 21.8 14.1 29.2 17.5 20.7 9.2 39.3 12 58.1 8.7z m249.8 -41.1 c22.2 -5.5 41.3 -20.6 58.5 -46.3 5.7 -8.5 6.7 -11.9 4.3 -14 -1.9 -1.5 -26.4 -7.7 -36.5 -9.1 -12.1 -1.8 -33 -0.8 -40.5 1.8 -18.6 6.7 -32.1 18.5 -50.2 43.7 -7.9 11.1 -8.6 14.7 -2.9 17.1 5.4 2.3 21.2 6.3 31.1 7.9 10.5 1.7 26.7 1.2 36.2 -1.1z m-299.1 -48.4 c17 -4.1 30.6 -12.2 43.4 -25.9 9.6 -10.1 10.6 -13.2 5.7 -17.4 -10.2 -8.6 -27.4 -18 -39.9 -21.8 -6 -1.9 -9.8 -2.3 -19 -2.4 -13.8 0 -24 2.4 -37 8.8 -10.5 5.1 -29.3 17.6 -38 25.2 -3.6 3.1 -7.5 6.2 -8.7 6.8 -3.9 1.7 -2.6 4 5 8.9 16.3 10.4 32.4 16.7 51.2 19.9 8 1.3 28 0.2 37.3 -2.1z m292.7 -44.2 c16.7 -5.7 28.3 -12.7 39.9 -24.5 8.9 -9 17.6 -21.1 17.6 -24.6 0 -2.1 -1.4 -3.1 -10.8 -7.5 -25 -11.7 -41.9 -15.8 -60.8 -14.8 -19.8 1 -27.2 4.2 -39.2 16.5 -13.9 14.3 -30.2 37.3 -30.2 42.6 0 1.9 0.7 2.6 3.3 3.4 1.7 0.5 6.6 2.4 10.7 4.1 15.7 6.6 30.5 9.1 48.5 8.4 9.9 -0.5 13.6 -1.1 21 -3.6z"/>
  <path d="M381.2 876.1 c1.3 -2.2 2.8 -2.8 2.8 -1.1 0 0.5 -0.9 1.4 -2 2 -1.9 1 -2 1 -0.8 -0.9z"/>
  <path d="M609.8 840.3 c-1 -0.2 -1.8 -1.2 -1.8 -2 0 -1.4 0.3 -1.4 2 0.2 1.7 1.5 2.6 2.8 1.8 2.4 -0.2 -0.1 -1.1 -0.3 -2 -0.6z"/>
  <path d="M655.7 727 c0.3 -1.1 1.2 -2 2.1 -2 1.3 0 1.2 0.3 -0.3 2 -1 1.1 -1.9 2 -2.1 2 -0.1 0 0 -0.9 0.3 -2z"/>
  <path d="M577.5 701 c1 -1.1 1.9 -2 2.1 -2 0.1 0 0 0.9 -0.3 2 -0.3 1.1 -1.2 2 -2.1 2 -1.3 0 -1.2 -0.3 0.3 -2z"/>
  <path d="M648.6 689.1 c-1.7 -1.9 -1.7 -1.9 0.3 -1.4 1.2 0.3 2.1 1.2 2.1 1.9 0 1.8 -0.4 1.8 -2.4 -0.5z"/>
 </g>
 <g fill="#ffdff3">
  <path d="M270.4 995.6 c-19.9 -8.4 -41.2 -20.9 -56.1 -32.8 -16.2 -12.8 -43.6 -45.4 -58.5 -69.3 -21.6 -34.8 -33.5 -63.6 -44.8 -108.2 -13.8 -54.1 -24 -134.8 -22.5 -177.3 1.7 -46.5 5.7 -81.4 12.5 -107.5 12.9 -50 26.9 -84.8 48.9 -121.8 22 -36.9 33.5 -52.2 56 -74.7 55.6 -55.6 126.7 -93.7 252.6 -135.6 30.1 -10 104.6 -32.6 105.3 -32 1.2 1.3 -1.3 4.6 -4.1 5.5 -26.4 8.2 -83 26.8 -85.7 28.1 -1.9 1 -17.9 7 -35.5 13.5 -104 38.2 -142.3 55.9 -170.1 78.6 -12.5 10.2 -26.3 24.9 -35.4 37.9 -59.7 85 -97.4 175.6 -109.9 264 -4 28.3 -4.5 37.2 -4.5 69 0 39 2.4 62.4 10 97 8.3 38.2 20.1 71.4 38.9 109.5 23.6 47.8 52.6 89.2 93.5 133.5 5.4 5.8 12 14.2 14.9 18.8 2.8 4.5 5 8.2 4.9 8.2 -0.2 0 -4.8 -2 -10.4 -4.4z"/>
  <path d="M961.3 866.3 c-1.3 -0.8 -2.3 -2 -2.3 -2.6 0 -0.5 1.7 -3.3 3.9 -6.1 4 -5.4 6.6 -11.3 13.7 -31.6 27.9 -80.2 37.2 -160.9 27.8 -242.5 -3.2 -27.9 -10.6 -67.5 -16.5 -88.1 -2.1 -7.2 -2.7 -11 -2.1 -11.6 1.3 -1.3 4.1 -0.4 4.6 1.4 0.2 0.7 2.4 7.8 4.9 15.8 20.5 65.3 29.8 118.5 29.8 171.5 0 35.7 -2.5 57.9 -9.8 86.9 -7.9 31.7 -19.7 58.6 -37.7 86.1 -4 6.1 -8 13 -9 15.5 -1.8 4.6 -3.4 7 -4.5 6.9 -0.3 0 -1.6 -0.7 -2.8 -1.6z"/>
  <path d="M799.6 842.9 c6.1 -9.8 12 -26 22.5 -62.9 5.3 -18.4 8.7 -37.4 10.8 -60.5 1.6 -16.8 2.5 -72.9 1.2 -75.2 -0.5 -1.1 -1.7 -8.7 -2.6 -16.9 -6.1 -56.2 -20.4 -120.4 -41.9 -187.9 -2.9 -9.3 -3.2 -10.6 -1.5 -8.5 1.2 1.4 4.8 5.8 8.2 9.9 3.4 4 6.8 8.4 7.5 9.8 3.2 5.8 20.2 51.3 28.8 76.8 35.2 105.5 41.5 184.9 19.8 249.1 -6.2 18.5 -22.9 48.9 -31.2 57 -3.2 3 -17.7 11.5 -22 12.9 l-2.3 0.7 2.7 -4.3z"/>
  <path d="M519.4 806.5 c-17.7 -5.4 -27.3 -9.2 -34.8 -13.7 -91.3 -53.9 -125.6 -130.3 -135.5 -302.3 -0.6 -9.9 -1.3 -21.3 -1.6 -25.4 -1 -15.5 5.7 -75.6 10.5 -93.6 5.4 -20.6 14.2 -43.2 24.1 -62.5 15.4 -30.1 39.8 -59 49.9 -59 2.8 0 2.5 2 -1.4 9.2 -7.6 13.8 -21.9 50.5 -29 74.3 -16.6 55.9 -24 106.3 -24 163.5 0.1 47.6 4.5 82.3 15.6 122.9 21.9 79.8 66.3 141.7 130.3 181.2 8.1 5 11.8 9 8.3 8.9 -0.7 -0.1 -6.3 -1.6 -12.4 -3.5z"/>
  <path d="M238.8 784.2 c-27.6 -19.8 -56.5 -50.9 -70.5 -75.9 -9.6 -17 -18 -52.3 -21.7 -90.8 -2.1 -21.7 -3.8 -54 -3.4 -65 0.3 -8.9 0.3 -9 2.9 -9.3 4 -0.5 6.4 4.3 7.9 15.8 0.6 5.2 2.7 18.3 4.6 29 15.6 89.1 39.4 146 76.5 183.1 4.4 4.4 7.9 8.5 7.9 9.3 0 0.8 0.9 3.1 2.1 5 1.2 2 1.7 3.6 1.2 3.6 -0.4 -0.1 -3.8 -2.2 -7.5 -4.8z"/>
  <path d="M381 751 c-36.2 -4.8 -60.5 -12.5 -79.5 -25.3 -10.9 -7.4 -23.7 -21.5 -31.6 -34.9 -10 -16.9 -14.6 -29.2 -27.5 -72.9 -4.3 -14.5 -8.3 -26.8 -9.1 -27.4 -1.9 -1.5 -4.2 -11.6 -5.9 -26.5 -1.3 -10.5 -1.5 -19.3 -1.1 -40 1 -45.9 7 -78.4 22.5 -121.5 2.7 -7.8 4.5 -11 7.9 -14.5 2.4 -2.5 4.3 -5 4.3 -5.6 0 -1.2 3.2 -4.4 4.3 -4.4 1.5 0 0.5 4.2 -2.6 11.7 -2.7 6.1 -3.7 10.6 -5 21.3 -3.7 30 -4.2 38.1 -4.2 76.5 0 31.6 0.4 41.8 1.8 54 5.3 43.1 14.3 76.2 29.2 107.2 17.3 36 39.6 62.1 69.8 81.8 10.2 6.6 28.2 15.5 31.5 15.5 2.8 0 7.6 2.2 11.2 5 l2.5 2 -2.5 -0.1 c-1.4 -0.1 -8.6 -0.9 -16 -1.9z"/>
  <path d="M811.5 640 c-12.5 -2.8 -43.1 -17.2 -65 -30.5 -79.7 -48.5 -130 -116.9 -175.2 -238 -4.2 -11.2 -8.1 -27.1 -6.9 -28.2 0.3 -0.3 1.5 1.1 2.7 3.1 1.1 2 2.4 3.6 2.8 3.6 1.4 0 4.4 6.4 10.1 21.7 12.3 33.2 30.8 74.1 44.2 97.7 45.8 80.7 105.7 132 193.5 165.7 4.7 1.8 6.3 2.9 6.6 4.6 0.5 2.9 -1.4 2.9 -12.8 0.3z"/>
  <path d="M930.7 515.3 c-0.3 -0.5 -0.7 -5.5 -1.1 -11.3 -3.1 -48.7 -12.5 -90.3 -30.7 -135.2 -2.7 -6.7 -4.9 -12.8 -4.9 -13.5 0 -1.3 2 -1.9 2 -0.5 0 0.4 2.5 3.4 5.5 6.6 6.1 6.6 7.7 10 15.5 33.5 6.1 18.5 11 37.6 14.6 57.1 2.3 11.8 2.8 17.4 2.8 30 0 22.4 -1.6 36.9 -3.7 33.3z"/>
  <path d="M741.5 231.4 c-27.8 -11.3 -39.6 -14.5 -66.8 -18.3 -21.6 -3.1 -42.7 -4.1 -84.3 -4.1 -27.4 0 -37.3 -0.3 -38.2 -1.2 -1.9 -1.9 -1.4 -4.2 1.3 -6.8 l2.6 -2.4 30.2 2.2 c83.3 6.3 119.1 11.1 145.2 19.7 10.3 3.4 26.5 10.9 26.5 12.3 0 1.4 -2.3 3.2 -3.9 3.2 -0.9 -0.1 -6.5 -2.1 -12.6 -4.6z"/>
 </g>
 <g fill="#ffffff">
  <path d="M366.2 966.5 c-7.9 -3.2 -23.7 -11.8 -24.7 -13.4 -0.8 -1.4 24.2 -16.8 30.2 -18.6 l2.3 -0.6 -2 4.3 c-3.9 8.6 -2 23.7 3.7 30 2.4 2.7 0.2 2.3 -9.5 -1.7z"/>
  <path d="M427 969.7 c0 -0.1 1.4 -2.9 3 -6.1 2.6 -5 3 -7 3 -13.6 0 -6.5 -0.5 -8.6 -2.8 -13.4 -1.6 -3.1 -2.6 -5.6 -2.3 -5.6 0.3 0 5.1 2.2 10.6 4.9 11.4 5.6 24.8 14.7 24.2 16.4 -0.5 1.5 -21.7 12.6 -29.6 15.4 -3.3 1.2 -6.1 2.1 -6.1 2z"/>
  <path d="M403.9 947.1 c-2.4 -2.5 -2.9 -3.8 -2.9 -7.9 0 -4.1 0.5 -5.5 2.9 -8.1 4 -4.3 10 -4.4 14.2 -0.2 2.5 2.5 2.9 3.7 2.9 8.1 0 4.4 -0.4 5.6 -2.9 8.1 -2.3 2.3 -3.8 2.9 -7.1 2.9 -3.3 0 -4.8 -0.6 -7.1 -2.9z"/>
  <path d="M632.5 932.9 c-7.2 -1.1 -26.7 -5.8 -27.7 -6.8 -0.8 -0.7 13.3 -20.1 17.6 -24 l2.6 -2.4 0 6.4 c0.1 9.8 4.9 18.9 13.3 25 4.4 3.2 4.2 3.2 -5.8 1.8z"/>
  <path d="M689 916.8 c1.4 -3 2 -6.6 2 -11.9 0 -6.5 -0.4 -8.5 -3.1 -13.7 -1.7 -3.6 -5 -7.8 -7.6 -10.2 l-4.6 -4 5.5 0 c8.4 0 38.8 6.2 38.8 7.9 0 0.4 -2.3 4.1 -5.1 8.2 -5.2 7.4 -24.8 27.9 -26.8 27.9 -0.5 0 -0.1 -1.9 0.9 -4.2z"/>
  <path d="M658.9 901.1 c-2.3 -2.3 -2.9 -3.8 -2.9 -7.1 0 -9.1 10.6 -13.5 17.1 -7.1 6.4 6.5 2 17.1 -7.1 17.1 -3.3 0 -4.8 -0.6 -7.1 -2.9z"/>
  <path d="M318 882.4 c-8.6 -2.3 -28.8 -11.1 -33.3 -14.6 -1.7 -1.3 -1 -2 9.1 -9.6 9.1 -6.8 25.2 -17.2 26.6 -17.2 0.2 0 -0.4 2.3 -1.5 5 -2.6 6.7 -2.5 17.3 0.1 24.1 1 2.8 3.8 7.4 6 10 2.3 2.7 3.8 4.9 3.3 4.9 -0.4 -0.1 -5.1 -1.2 -10.3 -2.6z"/>
  <path d="M383.6 871.3 c4.2 -10.3 3 -23.3 -3.2 -32.5 -1.3 -2.1 -2.1 -3.8 -1.6 -3.8 1.8 0 18.8 9.3 24.8 13.5 l6.4 4.6 -1.9 2.7 c-4.4 6.2 -22.9 21.2 -26.1 21.2 -0.4 0 0.3 -2.6 1.6 -5.7z"/>
  <path d="M355.9 854.1 c-2.4 -2.4 -2.9 -3.8 -2.9 -7.6 0 -6.4 3.9 -10.5 10 -10.5 6.1 0 10 4.1 10 10.5 0 6.4 -3.9 10.5 -10 10.5 -3.3 0 -4.8 -0.6 -7.1 -2.9z"/>
  <path d="M600 837.1 c-7.2 -2.3 -12.4 -4.5 -13.8 -5.6 -0.4 -0.4 4.1 -7.7 8.7 -14 l3.6 -5 0.6 5.2 c0.8 6.3 3.7 12.6 8.5 18.1 1.9 2.3 3 4.2 2.2 4.2 -0.7 -0.1 -5.1 -1.3 -9.8 -2.9z"/>
  <path d="M682.6 824.5 c0.5 -1.7 0.9 -7 0.9 -12 0 -10.2 -2 -15.8 -8.3 -22.7 -1.9 -2.1 -3 -3.8 -2.4 -3.8 4.1 0 34.2 12.5 34.2 14.2 0 2.5 -13.9 18 -21.4 24.1 l-3.9 3.1 0.9 -2.9z"/>
  <path d="M646.6 815.1 c-4.3 -2.9 -6.6 -7 -6.6 -12.1 0 -8.3 5.9 -14 14.5 -14 8.6 0 14.5 5.7 14.5 14 0 8.3 -5.9 14 -14.5 14 -3.2 0 -6 -0.7 -7.9 -1.9z"/>
  <path d="M580.5 742.1 c-4.4 -0.9 -12.1 -3 -17.2 -4.5 l-9.2 -2.9 3.1 -6.1 c4.3 -8.6 11.9 -19.3 17.4 -24.6 4.6 -4.4 4.6 -4.4 3.8 -1.5 -0.5 1.7 -0.9 7.1 -0.9 12 0 7.7 0.4 9.8 2.7 14.7 1.4 3.1 4.5 7.7 6.8 10.2 4.7 5.1 4.7 5.1 -6.5 2.7z"/>
  <path d="M656.5 726 c0.4 -1.4 1 -6 1.2 -10.2 0.6 -9 -1.1 -15.2 -6.3 -22.9 l-3.4 -5.1 3.1 0.7 c5.7 1.3 24.9 9.8 24.9 11 0 0.3 -1.3 3.1 -2.9 6.3 -3.2 6.4 -10.5 16.4 -14.7 20.2 l-2.7 2.5 0.8 -2.5z"/>
  <path d="M623.9 711.1 c-3.5 -3.5 -3.9 -4.3 -3.9 -9.1 0 -4.9 0.3 -5.6 4 -9.2 3.7 -3.5 4.6 -3.8 9.7 -3.8 5.1 0 5.8 0.3 9.4 3.9 3.5 3.5 3.9 4.4 3.9 9.1 0 4.7 -0.4 5.6 -3.9 9.1 -3.6 3.6 -4.3 3.9 -9.6 3.9 -5.3 0 -6 -0.3 -9.6 -3.9z"/>
 </g>
</svg>
